<svg width="60" height="60" viewBox="0 0 60 60" fill="none"
    xmlns="http://www.w3.org/2000/svg">
    <path d="M58.125 24.7383H48.9149C48.6341 24.7383 48.3679 24.8642 48.1897 25.0815C48.0117 25.2988 47.9405 25.5844 47.9955 25.8599C48.2331 27.047 48.3537 28.2656 48.3537 29.4819C48.3537 39.6021 40.1202 47.8355 30 47.8355C19.8798 47.8355 11.6464 39.6021 11.6464 29.4818C11.6464 28.2655 11.7669 27.0469 12.0046 25.8597C12.0596 25.5842 11.9883 25.2987 11.8103 25.0814C11.6323 24.8641 11.3661 24.7381 11.0852 24.7381H1.875C1.35727 24.7381 0.9375 25.1579 0.9375 25.6756V33.288C0.9375 33.6759 1.17633 34.0236 1.5382 34.163L5.74383 35.7817C6.32555 38.0265 7.21547 40.1731 8.39473 42.1759L6.56437 46.2972C6.40699 46.6516 6.48398 47.0663 6.7582 47.3407L12.1411 52.7237C12.4154 52.9978 12.83 53.0748 13.1845 52.9175L17.3044 51.0878C19.3073 52.2673 21.4547 53.1575 23.7006 53.7394L25.3189 57.9436C25.4582 58.3055 25.806 58.5443 26.1939 58.5443H33.8064C34.1943 58.5443 34.542 58.3055 34.6813 57.9436L36.2999 53.7381C38.5447 53.1565 40.6914 52.2664 42.6942 51.0872L46.8153 52.9175C47.1695 53.0749 47.5843 52.998 47.8587 52.7237L53.2418 47.3408C53.5161 47.0665 53.5931 46.6517 53.4357 46.2974L51.606 42.1776C52.7855 40.1747 53.6757 38.0273 54.2575 35.7814L58.4618 34.1631C58.8237 34.0238 59.0625 33.676 59.0625 33.2881V25.6758C59.0625 25.158 58.6427 24.7383 58.125 24.7383ZM57.1875 32.6444L53.1285 34.2068C52.84 34.3178 52.6248 34.564 52.5532 34.8647C51.9852 37.2526 51.043 39.5255 49.7529 41.6204C49.5907 41.8837 49.5689 42.21 49.6943 42.4925L51.4609 46.47L46.9882 50.9424L43.0093 49.1753C42.727 49.0499 42.4007 49.0715 42.1373 49.2337C40.0423 50.5238 37.7699 51.4659 35.3832 52.0339C35.0825 52.1054 34.8363 52.3207 34.7253 52.6091L33.1627 56.6692H26.8376L25.2752 52.6103C25.1643 52.3217 24.918 52.1066 24.6173 52.035C22.2294 51.4669 19.9566 50.5247 17.8616 49.2346C17.5982 49.0721 17.2718 49.0505 16.9895 49.176L13.0119 50.9426L8.53945 46.47L10.3066 42.491C10.432 42.2085 10.4102 41.8822 10.2482 41.619C8.95816 39.524 8.01609 37.2517 7.44797 34.8649C7.37648 34.5643 7.16121 34.3181 6.87281 34.2071L2.8125 32.6443V26.6133H9.9743C9.83953 27.5619 9.77145 28.5226 9.77145 29.4819C9.77145 40.636 18.846 49.7105 30 49.7105C41.154 49.7105 50.2287 40.6359 50.2287 29.4819C50.2287 28.5226 50.1606 27.5619 50.0258 26.6133H57.1875V32.6444ZM5.11113 14.6412L5.11125 21.0694C5.11125 21.5871 5.53102 22.0069 6.04875 22.0069H14.0149V25.561C13.7024 26.8392 13.5439 28.1576 13.5439 29.4818C13.5439 38.5557 20.9261 45.938 30 45.938C39.0739 45.938 46.4562 38.5557 46.4562 29.4818C46.4562 28.1576 46.2977 26.8392 45.9852 25.561V22.0069H53.9514C54.4691 22.0069 54.8889 21.5871 54.8889 21.0694V14.6412C56.3384 14.2316 57.4039 12.8978 57.4039 11.319C57.4039 9.4153 55.8552 7.86655 53.9515 7.86655C52.0478 7.86655 50.4989 9.4153 50.4989 11.319C50.4989 12.8978 51.5645 14.2315 53.0139 14.6412V20.1319H45.0477C44.53 20.1319 44.1102 20.5516 44.1102 21.0694V25.6758C44.1102 25.753 44.1198 25.83 44.1387 25.905C44.4322 27.0691 44.5811 28.2725 44.5811 29.4818C44.5811 37.5218 38.04 44.063 29.9999 44.063C21.9598 44.063 15.4188 37.5219 15.4188 29.4818C15.4188 28.2725 15.5678 27.069 15.8612 25.905C15.8801 25.83 15.8897 25.753 15.8897 25.6758V21.0694C15.8897 20.5516 15.4699 20.1319 14.9522 20.1319H6.98625L6.98613 14.6412C8.43563 14.2315 9.50121 12.8978 9.50121 11.319C9.50121 9.4153 7.95234 7.86655 6.04863 7.86655C4.14492 7.86655 2.59617 9.4153 2.59617 11.319C2.59617 12.8978 3.66176 14.2315 5.11113 14.6412ZM52.3739 11.319C52.3739 10.4491 53.0816 9.74155 53.9515 9.74155C54.8214 9.74155 55.5289 10.4491 55.5289 11.319C55.5289 12.1889 54.8214 12.8966 53.9515 12.8966C53.0816 12.8966 52.3739 12.1889 52.3739 11.319ZM6.04863 9.74155C6.91852 9.74155 7.62621 10.4491 7.62621 11.319C7.62621 12.1889 6.91852 12.8966 6.04863 12.8966C5.17875 12.8966 4.47117 12.1889 4.47117 11.319C4.47117 10.4491 5.17875 9.74155 6.04863 9.74155ZM19.8435 19.9658V34.1443H19.5234C19.0057 34.1443 18.5859 34.5641 18.5859 35.0818C18.5859 35.5996 19.0057 36.0193 19.5234 36.0193H40.4766C40.9943 36.0193 41.4141 35.5996 41.4141 35.0818C41.4141 34.5641 40.9943 34.1443 40.4766 34.1443H40.1565V17.8998C40.1565 17.3821 39.7368 16.9623 39.219 16.9623H36.9334L36.9333 11.4716C38.3828 11.062 39.4484 9.72819 39.4484 8.14944C39.4484 6.24573 37.8996 4.69698 35.9959 4.69698C34.0922 4.69698 32.5433 6.24573 32.5433 8.14944C32.5433 9.72819 33.6089 11.0619 35.0583 11.4716L35.0584 17.8998C35.0584 18.4175 35.4782 18.8373 35.9959 18.8373H38.2815V34.1442H34.0105V25.9488C35.46 25.5391 36.5256 24.2055 36.5256 22.6268C36.5256 20.7231 34.9767 19.1742 33.073 19.1742C31.1693 19.1742 29.6205 20.7231 29.6205 22.6268C29.6205 24.2055 30.6861 25.5392 32.1355 25.9488V34.1442H27.8645V18.8373H30.1501C30.6679 18.8373 31.0876 18.4175 31.0876 17.8998V10.886C31.0876 10.3683 30.6679 9.9485 30.1501 9.9485H25.3493V8.2303C26.7988 7.82061 27.8644 6.48702 27.8644 4.90827C27.8644 3.00456 26.3155 1.45569 24.4118 1.45569C22.5081 1.45569 20.9593 3.00456 20.9593 4.90827C20.9593 6.48702 22.0249 7.82073 23.4743 8.2303V10.886C23.4743 11.4037 23.8941 11.8235 24.4118 11.8235H29.2126V16.9624H26.927C26.4093 16.9624 25.9895 17.3822 25.9895 17.8999V34.1443H21.7186V19.9658C23.168 19.5561 24.2336 18.2224 24.2336 16.6437C24.2336 14.7399 22.6848 13.1912 20.7811 13.1912C18.8774 13.1912 17.3285 14.7399 17.3285 16.6437C17.3284 18.2224 18.394 19.5561 19.8435 19.9658ZM34.4183 8.14944C34.4183 7.27956 35.126 6.57198 35.9959 6.57198C36.8658 6.57198 37.5734 7.27956 37.5734 8.14944C37.5734 9.01932 36.8658 9.72702 35.9959 9.72702C35.126 9.72702 34.4183 9.01932 34.4183 8.14944ZM31.4955 22.6268C31.4955 21.7569 32.2031 21.0492 33.073 21.0492C33.9429 21.0492 34.6506 21.7569 34.6506 22.6268C34.6506 23.4967 33.9429 24.2042 33.073 24.2042C32.2031 24.2042 31.4955 23.4967 31.4955 22.6268ZM22.8343 4.90827C22.8343 4.03838 23.5419 3.33069 24.4118 3.33069C25.2817 3.33069 25.9894 4.03838 25.9894 4.90827C25.9894 5.77815 25.2817 6.48573 24.4118 6.48573C23.5419 6.48573 22.8343 5.77815 22.8343 4.90827ZM20.781 15.0661C21.6509 15.0661 22.3584 15.7737 22.3584 16.6435C22.3584 17.5134 21.6509 18.2211 20.781 18.2211C19.9111 18.2211 19.2034 17.5134 19.2034 16.6435C19.2034 15.7737 19.9111 15.0661 20.781 15.0661Z" fill="#5B8266"/>
</svg>
