<svg width="60" height="60" viewBox="0 0 60 60" fill="none"
    xmlns="http://www.w3.org/2000/svg">
    <g clip-path="url(#clip0_187_773)">
        <path d="M30.0396 38.6531C25.2145 38.6531 21.2888 34.8058 21.2888 30.076C21.2888 25.3462 25.2145 21.4984 30.0396 21.4984C30.7238 21.4984 31.5575 21.6668 31.5024 22.5426C31.4496 23.3787 30.6919 23.4339 30.0396 23.4339C26.2814 23.4339 23.2243 26.4136 23.2243 30.076C23.2243 33.7384 26.2814 36.7176 30.0396 36.7176C33.7978 36.7176 36.8549 33.7379 36.8549 30.076C36.8549 29.0057 36.6024 27.9847 36.104 27.0407C35.8543 26.5684 36.0353 25.9829 36.5075 25.7333C36.9798 25.4836 37.5662 25.6636 37.8154 26.1373C38.4532 27.345 38.7904 28.7071 38.7904 30.076C38.7904 34.8058 34.8653 38.6531 30.0396 38.6531Z" fill="#5B8266"/>
        <path d="M34.6548 24.9165C34.4589 24.9165 34.261 24.857 34.0897 24.7336C33.8337 24.5492 33.5618 24.3804 33.2816 24.2318C32.8089 23.9817 32.6289 23.3967 32.8785 22.9239C33.1282 22.4522 33.7137 22.2707 34.1864 22.5213C34.5455 22.7115 34.8939 22.9273 35.2219 23.1639C35.9652 23.6996 35.5723 24.9165 34.6548 24.9165Z" fill="#5B8266"/>
        <path d="M56.3583 14.8089L56.324 10.6074C56.3196 10.0757 55.887 9.64792 55.3562 9.64792C55.3533 9.64792 55.3509 9.64792 55.348 9.64792C54.8138 9.65227 54.3836 10.0892 54.388 10.6234L54.3982 11.8984C48.5883 4.98002 39.282 0.483887 30.3556 0.483887C21.1253 0.483887 12.5811 4.61808 6.91735 11.8253C6.58735 12.2453 6.66042 12.8536 7.08042 13.1836C7.5009 13.514 8.10913 13.441 8.43961 13.0205C13.7341 6.28308 21.7224 2.41937 30.3556 2.41937C39.0333 2.41937 48.0957 6.95131 53.4909 13.8499H50.8349C50.3007 13.8499 49.8672 14.2829 49.8672 14.8176C49.8672 15.3518 50.3007 15.7853 50.8349 15.7853H55.3906C55.7027 15.7849 56.3583 15.437 56.3583 14.8089Z" fill="#5B8266"/>
        <path d="M58.034 19.2416C57.8405 18.7442 57.2792 18.4975 56.7813 18.6915C56.2834 18.885 56.0366 19.4463 56.2306 19.9447C57.4476 23.0671 58.0645 26.3628 58.0645 29.7402C58.0645 40.352 50.6724 50.5418 40.1395 54.9291L40.8605 53.8258C41.1527 53.3787 41.0269 52.7787 40.5798 52.487C40.1322 52.1952 39.5327 52.32 39.24 52.7676L36.9319 56.2989C36.6106 56.7891 36.8172 57.4776 37.3514 57.7137L41.2398 59.4286C42.3813 59.9294 43.1627 58.1618 42.0208 57.6576L40.3664 56.9284C45.4447 54.9121 50.0482 51.5589 53.5127 47.311C57.7572 42.1065 60 36.031 60 29.7402C60 26.1213 59.3385 22.5896 58.034 19.2416C59.3385 22.5896 57.84 18.7437 58.034 19.2416Z" fill="#5B8266"/>
        <path d="M31.5038 57.0377C31.123 57.0527 30.7403 57.0605 30.3556 57.0605C15.0769 57.0605 2.64672 44.805 2.64672 29.7401C2.64672 27.075 3.76688 23.7416 4.8343 20.9279L5.68785 22.8164C6.20317 23.9555 7.96495 23.1546 7.45204 22.02L5.64769 18.028C5.42559 17.5374 4.81446 17.3201 4.33253 17.5611L0.534626 19.4632C0.0565611 19.7022 -0.136503 20.2838 0.102529 20.7614C0.342045 21.2395 0.924625 21.4335 1.40124 21.193L2.95979 20.4126C1.85559 23.34 0.711722 26.8103 0.711722 29.7397C0.711722 45.8709 14.0099 58.995 30.3561 58.995C30.7664 58.995 31.1748 58.9863 31.5808 58.9703C32.1149 58.9495 32.5306 58.499 32.5093 57.9653C32.488 57.4316 32.0366 57.0174 31.5038 57.0377C32.0366 57.0174 31.1235 57.0527 31.5038 57.0377Z" fill="#5B8266"/>
        <path d="M31.549 49.3499C30.5991 49.3499 27.7835 49.3611 27.3451 49.1743C26.5903 48.853 25.9748 48.0338 25.9748 47.1938V45.2661C24.5164 44.8838 23.1078 44.2887 21.8324 43.5159L20.4775 44.8679C19.6269 45.7079 18.1767 45.567 17.3604 44.7861C16.9617 44.4043 15.4095 42.8191 15.0504 42.402C14.2849 41.5122 14.3019 40.1332 15.1385 39.298L16.502 37.9379C15.7046 36.5791 15.123 35.1512 14.792 33.7388H12.8837C11.6938 33.7388 10.7106 32.7614 10.6453 31.5822C10.6148 31.0311 10.6293 28.8077 10.6453 28.2541C10.6782 27.1137 11.6009 26.0182 12.8043 26.0182H14.7388C15.1216 24.5641 15.7172 23.1595 16.4914 21.8883L15.139 20.5388C14.2927 19.6925 14.4393 18.2361 15.2208 17.4232C15.6035 17.0254 17.1925 15.4761 17.6101 15.1185C18.5004 14.3564 19.8795 14.3733 20.7156 15.2066L22.0811 16.5691C23.4432 15.7727 24.8754 15.192 26.2922 14.8611V12.8806C26.2922 11.6903 27.2735 10.7104 28.4512 10.6446C29.0033 10.6141 31.232 10.6272 31.787 10.6446C32.9933 10.6824 33.9461 11.668 33.9461 12.8806V14.8083C35.4045 15.1906 36.813 15.7853 38.0885 16.5585L39.4433 15.2066C40.292 14.3637 41.7461 14.5093 42.5604 15.2888C42.9591 15.6706 44.5114 17.2553 44.8699 17.6724C45.6354 18.5627 45.6185 19.9412 44.7814 20.7764L43.4183 22.1366C44.2158 23.4948 44.7969 24.9222 45.1283 26.3351H47.0367C48.199 26.3351 49.2282 27.195 49.3472 28.3717C49.4048 28.9412 49.3714 31.2508 49.3549 31.8203C49.322 32.9612 48.4003 34.0558 47.1959 34.0558H45.2614C44.8787 35.5098 44.283 36.914 43.5088 38.1861L44.8612 39.5351C45.708 40.3819 45.5609 41.8383 44.7795 42.6512C44.3967 43.049 42.8082 44.5979 42.3901 44.9554C41.4993 45.718 40.1212 45.702 39.2846 44.8679L37.9191 43.5053C36.557 44.3012 35.1253 44.8824 33.708 45.2133V47.1145C33.708 48.2554 32.7277 49.3499 31.549 49.3499ZM27.9098 47.1169C27.9306 47.2151 27.9998 47.4145 28.2127 47.4145H31.4725C31.5717 47.3937 31.7725 47.325 31.7725 47.114V44.4198C31.7725 43.947 32.1146 43.543 32.5816 43.4656C34.2311 43.1912 35.944 42.5003 37.5354 41.4682C37.9182 41.22 38.4228 41.2732 38.7456 41.5949L40.6516 43.497C40.8049 43.6504 41.0106 43.56 41.1074 43.5029L43.4261 41.2664C43.5645 41.1285 43.4808 40.9325 43.4237 40.8348L41.5878 39.0029C41.2574 38.6733 41.2095 38.1551 41.4732 37.7704C42.452 36.3425 43.189 34.6093 43.548 32.8891C43.6419 32.4406 44.0372 32.1193 44.4954 32.1193H47.1199C47.2187 32.099 47.4195 32.0308 47.4195 31.8198V28.5653C47.3798 28.3693 47.2511 28.2701 47.0367 28.2701H44.3362C43.863 28.2701 43.4595 27.9285 43.3816 27.4616C43.1072 25.8169 42.4148 24.1088 41.3807 22.5212C41.1306 22.1375 41.1838 21.6314 41.508 21.3077L43.414 19.4056C43.5645 19.2556 43.4759 19.0529 43.4198 18.9566L41.1785 16.6432C41.0382 16.5038 40.8388 16.588 40.7396 16.6451L38.9033 18.4775C38.5743 18.8061 38.058 18.854 37.6743 18.5912C36.2435 17.6153 34.5054 16.8793 32.7804 16.5208C32.3314 16.4279 32.0096 16.0316 32.0096 15.5733V12.8791C32.0096 12.6929 31.8795 12.5787 31.7861 12.5787H28.5262C28.427 12.5995 28.2262 12.6682 28.2262 12.8791V15.6527C28.2262 16.1254 27.8841 16.5295 27.4172 16.6069C25.7682 16.8812 24.0553 17.5717 22.4633 18.6038C22.0806 18.853 21.5764 18.7993 21.2537 18.477L19.3477 16.5754C19.1948 16.4225 18.9887 16.5125 18.8919 16.5691L16.5732 18.8056C16.4348 18.9435 16.5185 19.1395 16.5756 19.2372L18.4114 21.0696C18.7419 21.3996 18.7898 21.9174 18.5261 22.302C17.5477 23.729 16.8108 25.4627 16.4512 27.1829C16.3574 27.6314 15.962 27.9527 15.5038 27.9527H12.8808C12.7816 27.974 12.5808 28.0422 12.5808 28.2537V31.5053C12.6016 31.6035 12.6708 31.8029 12.8837 31.8029H15.5841C16.0574 31.8029 16.4609 32.145 16.5388 32.6114C16.8132 34.2556 17.5051 35.9641 18.5396 37.5522C18.7898 37.9359 18.7366 38.442 18.4124 38.7658L16.5064 40.6674C16.3559 40.8179 16.4445 41.0206 16.5006 41.1169L18.7419 43.4303C18.8822 43.5701 19.0816 43.4859 19.1808 43.4279L21.017 41.5954C21.3456 41.2669 21.8624 41.219 22.2466 41.4817C23.6769 42.4582 25.4145 43.1941 27.1399 43.5527C27.589 43.6456 27.9107 44.0419 27.9107 44.5001V47.1169H27.9098Z" fill="#5B8266"/>
    </g>
    <defs>
        <clipPath id="clip0_187_773">
            <rect width="60" height="60" fill="white"/>
        </clipPath>
    </defs>
</svg>
