<svg width="60" height="60" viewBox="0 0 60 60" fill="none"
    xmlns="http://www.w3.org/2000/svg">
    <mask id="path-1-inside-1_187_764" fill="white">
        <path fill-rule="evenodd" clip-rule="evenodd" d="M58.2548 26.0537L55.1332 25.4383L52.8851 20.0119L54.6575 17.3689C54.9462 16.9384 54.8914 16.3776 54.525 16.011L50.4345 11.9206C50.0679 11.554 49.5071 11.4994 49.0767 11.788L46.4338 13.5605L41.0074 11.3124L40.392 8.19061C40.2918 7.68213 39.8563 7.32424 39.3381 7.32424H33.5531C33.0348 7.32424 32.5996 7.68213 32.4993 8.19061L31.8838 11.3124L26.4574 13.5605L23.8144 11.788C23.3839 11.4995 22.8232 11.5541 22.4568 11.9206L18.3662 16.011C17.9998 16.3776 17.9449 16.9384 18.2337 17.3689L18.5913 17.9022H11.6714V12.4935C13.1082 12.1273 14.1741 10.8224 14.1741 9.2726C14.1741 7.44131 12.6834 5.95081 10.8511 5.95081C9.01875 5.95081 7.52859 7.44143 7.52859 9.2726C7.52859 10.8224 8.5943 12.1272 10.0308 12.4935V18.7225C10.0308 19.1755 10.398 19.5428 10.8511 19.5428H26.7511C29.2955 17.1829 32.7018 15.7394 36.4457 15.7394C44.3216 15.7394 50.7063 22.1241 50.7063 30C50.7063 37.876 44.3216 44.2607 36.4457 44.2607C32.7018 44.2607 29.2954 42.8172 26.7511 40.4574H10.8509C10.3978 40.4574 10.0305 40.8246 10.0305 41.2777V47.506C8.59406 47.8722 7.52836 49.1769 7.52836 50.7257C7.52836 52.5586 9.01898 54.0492 10.8509 54.0492C12.6827 54.0492 14.1738 52.5586 14.1738 50.7257C14.1738 49.1768 13.1081 47.8722 11.6712 47.506V42.098H18.5911L18.2334 42.6313C17.9447 43.0617 17.9995 43.6226 18.366 43.9892L22.4565 48.0796C22.823 48.4462 23.3838 48.5009 23.8143 48.2123L26.4573 46.4398L31.8836 48.6878L32.499 51.8097C32.5993 52.3181 33.0346 52.6759 33.553 52.6759H39.3379C39.8562 52.6759 40.2914 52.3181 40.3917 51.8097L41.0072 48.6878L46.4334 46.4397L49.0765 48.2121C49.507 48.5008 50.0678 48.446 50.4343 48.0795L54.5248 43.989C54.8913 43.6225 54.9459 43.0616 54.6573 42.6312L52.8848 39.9881L55.133 34.5618L58.2547 33.9463C58.7632 33.8461 59.1211 33.4107 59.1211 32.8924V27.1076C59.1211 26.5892 58.7632 26.154 58.2547 26.0537H58.2548ZM9.16875 9.2726C9.16875 8.34577 9.92391 7.59166 10.8509 7.59166C11.7778 7.59166 12.5336 8.34577 12.5336 9.2726C12.5336 10.1994 11.7789 10.9559 10.8509 10.9559C9.92285 10.9559 9.16875 10.2012 9.16875 9.2726ZM12.5336 50.7257C12.5336 51.6537 11.7789 52.4084 10.8509 52.4084C9.92285 52.4084 9.16875 51.6538 9.16875 50.7257C9.16875 49.7976 9.92391 49.0442 10.8509 49.0442C11.7778 49.0442 12.5336 49.7989 12.5336 50.7257ZM15.5046 23.3019C15.0516 23.3019 14.6843 22.9347 14.6843 22.4816C14.6843 22.0286 15.0516 21.6613 15.5046 21.6613H24.3007C24.7538 21.6613 25.121 22.0286 25.121 22.4816C25.121 22.9347 24.7538 23.3019 24.3007 23.3019H15.5046ZM24.3006 36.6981C24.7536 36.6981 25.1209 37.0654 25.1209 37.5184C25.1209 37.9715 24.7536 38.3387 24.3006 38.3387H15.5046C15.0516 38.3387 14.6843 37.9715 14.6843 37.5184C14.6843 37.0654 15.0516 36.6981 15.5046 36.6981H24.3006ZM9.31348 33.1803C8.97 32.8837 8.93109 32.3657 9.22758 32.024L11.4367 29.4618C11.5925 29.2799 11.8196 29.1771 12.0574 29.1771H22.1603C22.6127 29.1771 22.9811 29.5437 22.9811 29.9973C22.9811 30.451 22.6127 30.8175 22.1603 30.8175H12.4336L10.4696 33.0949C10.308 33.2824 10.0787 33.3796 9.84891 33.3796C9.65906 33.3796 9.46828 33.3141 9.31348 33.1803ZM11.3487 37.1387C11.5882 37.1387 11.8141 37.0348 11.97 36.8541L13.9339 34.5771H32.7247V37.8318C32.7247 38.3554 33.0156 38.8146 33.4833 39.0315C33.6646 39.1157 33.8595 39.1569 34.0515 39.1569C34.3622 39.1569 34.6689 39.0502 34.9118 38.8451L44.0838 31.0756C44.4013 30.8073 44.5832 30.4148 44.5832 29.9973C44.5832 29.5799 44.4013 29.1879 44.0838 28.9191L34.9118 21.1496C34.5182 20.8157 33.9566 20.7429 33.4833 20.9626C33.0156 21.179 32.7247 21.6399 32.7247 22.1624V25.4182H13.9338L11.9699 23.1407C11.814 22.9606 11.5881 22.856 11.3486 22.856H7.08996C6.72715 21.5112 5.49785 20.5184 4.03934 20.5184C2.29734 20.5184 0.879023 21.9361 0.879023 23.6787C0.879023 25.4213 2.29734 26.8396 4.03934 26.8396C5.49949 26.8396 6.72996 25.8446 7.09125 24.497H10.9741L12.9381 26.774C13.0935 26.9542 13.3199 27.0586 13.5588 27.0586H33.5454C33.9979 27.0586 34.3655 26.6903 34.3655 26.2384V22.8364L42.8184 29.9974L34.3655 37.1581V33.7572C34.3655 33.3037 33.9977 32.937 33.5454 32.937H13.5587C13.3198 32.937 13.0932 33.0397 12.938 33.22L10.974 35.4986H7.08984C6.72703 34.1536 5.49773 33.1608 4.03922 33.1608C2.29723 33.1608 0.878906 34.5785 0.878906 36.3211C0.878906 38.0637 2.29723 39.4804 4.03922 39.4804C5.49949 39.4804 6.73008 38.486 7.09113 37.1389H11.3483L11.3487 37.1387ZM4.03945 25.1986C3.2018 25.1986 2.52 24.5168 2.52 23.6786C2.52 22.8403 3.2018 22.1591 4.03945 22.1591C4.87711 22.1591 5.55891 22.8409 5.55891 23.6786C5.55891 24.5162 4.8777 25.1986 4.03945 25.1986ZM4.03945 37.8399C3.2018 37.8399 2.52 37.1587 2.52 36.321C2.52 35.4833 3.2018 34.801 4.03945 34.801C4.87711 34.801 5.55891 35.4828 5.55891 36.321C5.55891 37.1592 4.8777 37.8399 4.03945 37.8399Z"/>
    </mask>
    <path fill-rule="evenodd" clip-rule="evenodd" d="M58.2548 26.0537L55.1332 25.4383L52.8851 20.0119L54.6575 17.3689C54.9462 16.9384 54.8914 16.3776 54.525 16.011L50.4345 11.9206C50.0679 11.554 49.5071 11.4994 49.0767 11.788L46.4338 13.5605L41.0074 11.3124L40.392 8.19061C40.2918 7.68213 39.8563 7.32424 39.3381 7.32424H33.5531C33.0348 7.32424 32.5996 7.68213 32.4993 8.19061L31.8838 11.3124L26.4574 13.5605L23.8144 11.788C23.3839 11.4995 22.8232 11.5541 22.4568 11.9206L18.3662 16.011C17.9998 16.3776 17.9449 16.9384 18.2337 17.3689L18.5913 17.9022H11.6714V12.4935C13.1082 12.1273 14.1741 10.8224 14.1741 9.2726C14.1741 7.44131 12.6834 5.95081 10.8511 5.95081C9.01875 5.95081 7.52859 7.44143 7.52859 9.2726C7.52859 10.8224 8.5943 12.1272 10.0308 12.4935V18.7225C10.0308 19.1755 10.398 19.5428 10.8511 19.5428H26.7511C29.2955 17.1829 32.7018 15.7394 36.4457 15.7394C44.3216 15.7394 50.7063 22.1241 50.7063 30C50.7063 37.876 44.3216 44.2607 36.4457 44.2607C32.7018 44.2607 29.2954 42.8172 26.7511 40.4574H10.8509C10.3978 40.4574 10.0305 40.8246 10.0305 41.2777V47.506C8.59406 47.8722 7.52836 49.1769 7.52836 50.7257C7.52836 52.5586 9.01898 54.0492 10.8509 54.0492C12.6827 54.0492 14.1738 52.5586 14.1738 50.7257C14.1738 49.1768 13.1081 47.8722 11.6712 47.506V42.098H18.5911L18.2334 42.6313C17.9447 43.0617 17.9995 43.6226 18.366 43.9892L22.4565 48.0796C22.823 48.4462 23.3838 48.5009 23.8143 48.2123L26.4573 46.4398L31.8836 48.6878L32.499 51.8097C32.5993 52.3181 33.0346 52.6759 33.553 52.6759H39.3379C39.8562 52.6759 40.2914 52.3181 40.3917 51.8097L41.0072 48.6878L46.4334 46.4397L49.0765 48.2121C49.507 48.5008 50.0678 48.446 50.4343 48.0795L54.5248 43.989C54.8913 43.6225 54.9459 43.0616 54.6573 42.6312L52.8848 39.9881L55.133 34.5618L58.2547 33.9463C58.7632 33.8461 59.1211 33.4107 59.1211 32.8924V27.1076C59.1211 26.5892 58.7632 26.154 58.2547 26.0537H58.2548ZM9.16875 9.2726C9.16875 8.34577 9.92391 7.59166 10.8509 7.59166C11.7778 7.59166 12.5336 8.34577 12.5336 9.2726C12.5336 10.1994 11.7789 10.9559 10.8509 10.9559C9.92285 10.9559 9.16875 10.2012 9.16875 9.2726ZM12.5336 50.7257C12.5336 51.6537 11.7789 52.4084 10.8509 52.4084C9.92285 52.4084 9.16875 51.6538 9.16875 50.7257C9.16875 49.7976 9.92391 49.0442 10.8509 49.0442C11.7778 49.0442 12.5336 49.7989 12.5336 50.7257ZM15.5046 23.3019C15.0516 23.3019 14.6843 22.9347 14.6843 22.4816C14.6843 22.0286 15.0516 21.6613 15.5046 21.6613H24.3007C24.7538 21.6613 25.121 22.0286 25.121 22.4816C25.121 22.9347 24.7538 23.3019 24.3007 23.3019H15.5046ZM24.3006 36.6981C24.7536 36.6981 25.1209 37.0654 25.1209 37.5184C25.1209 37.9715 24.7536 38.3387 24.3006 38.3387H15.5046C15.0516 38.3387 14.6843 37.9715 14.6843 37.5184C14.6843 37.0654 15.0516 36.6981 15.5046 36.6981H24.3006ZM9.31348 33.1803C8.97 32.8837 8.93109 32.3657 9.22758 32.024L11.4367 29.4618C11.5925 29.2799 11.8196 29.1771 12.0574 29.1771H22.1603C22.6127 29.1771 22.9811 29.5437 22.9811 29.9973C22.9811 30.451 22.6127 30.8175 22.1603 30.8175H12.4336L10.4696 33.0949C10.308 33.2824 10.0787 33.3796 9.84891 33.3796C9.65906 33.3796 9.46828 33.3141 9.31348 33.1803ZM11.3487 37.1387C11.5882 37.1387 11.8141 37.0348 11.97 36.8541L13.9339 34.5771H32.7247V37.8318C32.7247 38.3554 33.0156 38.8146 33.4833 39.0315C33.6646 39.1157 33.8595 39.1569 34.0515 39.1569C34.3622 39.1569 34.6689 39.0502 34.9118 38.8451L44.0838 31.0756C44.4013 30.8073 44.5832 30.4148 44.5832 29.9973C44.5832 29.5799 44.4013 29.1879 44.0838 28.9191L34.9118 21.1496C34.5182 20.8157 33.9566 20.7429 33.4833 20.9626C33.0156 21.179 32.7247 21.6399 32.7247 22.1624V25.4182H13.9338L11.9699 23.1407C11.814 22.9606 11.5881 22.856 11.3486 22.856H7.08996C6.72715 21.5112 5.49785 20.5184 4.03934 20.5184C2.29734 20.5184 0.879023 21.9361 0.879023 23.6787C0.879023 25.4213 2.29734 26.8396 4.03934 26.8396C5.49949 26.8396 6.72996 25.8446 7.09125 24.497H10.9741L12.9381 26.774C13.0935 26.9542 13.3199 27.0586 13.5588 27.0586H33.5454C33.9979 27.0586 34.3655 26.6903 34.3655 26.2384V22.8364L42.8184 29.9974L34.3655 37.1581V33.7572C34.3655 33.3037 33.9977 32.937 33.5454 32.937H13.5587C13.3198 32.937 13.0932 33.0397 12.938 33.22L10.974 35.4986H7.08984C6.72703 34.1536 5.49773 33.1608 4.03922 33.1608C2.29723 33.1608 0.878906 34.5785 0.878906 36.3211C0.878906 38.0637 2.29723 39.4804 4.03922 39.4804C5.49949 39.4804 6.73008 38.486 7.09113 37.1389H11.3483L11.3487 37.1387ZM4.03945 25.1986C3.2018 25.1986 2.52 24.5168 2.52 23.6786C2.52 22.8403 3.2018 22.1591 4.03945 22.1591C4.87711 22.1591 5.55891 22.8409 5.55891 23.6786C5.55891 24.5162 4.8777 25.1986 4.03945 25.1986ZM4.03945 37.8399C3.2018 37.8399 2.52 37.1587 2.52 36.321C2.52 35.4833 3.2018 34.801 4.03945 34.801C4.87711 34.801 5.55891 35.4828 5.55891 36.321C5.55891 37.1592 4.8777 37.8399 4.03945 37.8399Z" stroke="#5B8266" stroke-width="2" mask="url(#path-1-inside-1_187_764)"/>
</svg>
