<svg width="60" height="60" viewBox="0 0 60 60" fill="none"
    xmlns="http://www.w3.org/2000/svg">
    <g clip-path="url(#clip0_187_736)">
        <path d="M58.554 35.4L55.8 34.3C55.4234 32.9567 54.8862 31.6637 54.2 30.449L55.363 27.724C55.5261 27.3576 55.5827 26.9526 55.5261 26.5555C55.4695 26.1584 55.302 25.7853 55.043 25.479C54.2749 24.5646 53.4291 23.7185 52.515 22.95C52.2093 22.6907 51.8367 22.5229 51.4399 22.466C51.0431 22.409 50.6383 22.4652 50.272 22.628L47.546 23.792C46.3312 23.1068 45.0386 22.5696 43.696 22.192L42.596 19.44C42.4629 19.1235 42.2574 18.8426 41.996 18.62V8C41.996 2.8 31.177 0 20.996 0C10.815 0 0 2.8 0 8V44C0 49.2 10.819 52 21 52C21.55 52 22.081 51.981 22.617 51.967C22.6982 52.1692 22.8109 52.3571 22.951 52.524C23.7196 53.4379 24.5654 54.284 25.479 55.053C25.7849 55.312 26.1575 55.4795 26.5542 55.5365C26.9509 55.5934 27.3556 55.5375 27.722 55.375L30.448 54.211C31.6628 54.8962 32.9554 55.4334 34.298 55.811L35.398 58.563C35.5458 58.9317 35.7916 59.253 36.1089 59.492C36.4262 59.7311 36.8028 59.8787 37.198 59.919C37.821 59.975 38.445 60.002 39.052 60.002C39.659 60.002 40.252 59.975 40.804 59.919C41.1993 59.8783 41.576 59.7303 41.8933 59.4909C42.2106 59.2516 42.4563 58.93 42.604 58.561L43.704 55.811C45.0466 55.4334 46.3392 54.8962 47.554 54.211L50.278 55.374C50.6447 55.5364 51.0497 55.5923 51.4467 55.5354C51.8437 55.4785 52.2167 55.3109 52.523 55.052C53.4368 54.2836 54.2826 53.4378 55.051 52.524C55.3098 52.2183 55.4772 51.8457 55.534 51.4492C55.5908 51.0526 55.5346 50.6481 55.372 50.282L54.208 47.554C54.8916 46.338 55.4262 45.044 55.8 43.7L58.555 42.6C58.9215 42.4524 59.2408 42.2078 59.4789 41.8924C59.7169 41.5771 59.8645 41.2029 59.906 40.81C60.0255 39.6076 60.0255 38.3964 59.906 37.194C59.8648 36.8004 59.7172 36.4254 59.479 36.1093C59.2408 35.7933 58.921 35.5481 58.554 35.4ZM21 2C32.2 2 40 5.162 40 8C40 10.838 32.2 14 21 14C9.8 14 2 10.838 2 8C2 5.162 9.8 2 21 2ZM2 11.561C5.591 14.464 13.468 16 21 16C28.532 16 36.409 14.464 40 11.561V18.047C39.0671 17.9899 38.1312 18.0019 37.2 18.083C36.8047 18.1237 36.428 18.2717 36.1107 18.5111C35.7934 18.7504 35.5477 19.072 35.4 19.441L34.3 22.191C32.9574 22.5686 31.6648 23.1058 30.45 23.791L27.726 22.628C27.3594 22.4643 26.9539 22.4077 26.5565 22.4647C26.1591 22.5217 25.7859 22.6899 25.48 22.95C24.567 23.7189 23.7215 24.5647 22.953 25.478C22.8286 25.6243 22.7253 25.7872 22.646 25.962C22.1 25.978 21.555 26 21 26C9.8 26 2 22.838 2 20V11.561ZM2 23.561C5.591 26.464 13.468 28 21 28C21.584 28 22.158 27.977 22.732 27.958L23.794 30.446C23.1097 31.6619 22.5745 32.9559 22.2 34.3L19.445 35.4C19.0785 35.5476 18.7592 35.7922 18.5211 36.1076C18.2831 36.4229 18.1355 36.7971 18.094 37.19C18.07 37.43 18.072 37.672 18.058 37.913C8.414 37.4 2 34.509 2 32V23.561ZM22.765 49.961C22.182 49.981 21.6 50 21 50C9.8 50 2 46.838 2 44V35.494C4.612 37.683 9.859 39.51 18.045 39.91C18.06 40.21 18.06 40.51 18.09 40.81C18.1302 41.2052 18.2778 41.5819 18.5168 41.8992C18.7559 42.2165 19.0772 42.4623 19.446 42.61L22.196 43.71C22.5726 45.0533 23.1098 46.3463 23.796 47.561L22.765 49.961ZM57.919 40.621C57.912 40.6483 57.8987 40.6736 57.8801 40.6948C57.8615 40.716 57.8382 40.7325 57.812 40.743L54.594 42.028C54.4464 42.0869 54.3151 42.1802 54.2107 42.3C54.1064 42.4198 54.0321 42.5628 53.994 42.717C53.6229 44.213 53.0289 45.6447 52.232 46.964C52.1502 47.0997 52.1019 47.2529 52.091 47.4109C52.08 47.569 52.1067 47.7273 52.169 47.873L53.531 51.066C53.5451 51.0921 53.5514 51.1217 53.5493 51.1513C53.5472 51.1808 53.5367 51.2092 53.519 51.233C52.8199 52.0643 52.0503 52.8339 51.219 53.533C51.195 53.5469 51.1677 53.5542 51.14 53.5542C51.1123 53.5542 51.085 53.5469 51.061 53.533L47.873 52.172C47.7275 52.1099 47.5693 52.0833 47.4114 52.0942C47.2536 52.1052 47.1006 52.1534 46.965 52.235C45.6465 53.0329 44.2155 53.6279 42.72 54C42.5658 54.0381 42.4228 54.1124 42.303 54.2167C42.1832 54.3211 42.0899 54.4524 42.031 54.6L40.747 57.815C40.7367 57.8438 40.719 57.8693 40.6956 57.8889C40.6722 57.9086 40.6441 57.9217 40.614 57.927C39.5366 58.0261 38.4524 58.0261 37.375 57.927C37.3474 57.9202 37.3219 57.9068 37.3008 57.8877C37.2797 57.8687 37.2636 57.8448 37.254 57.818L35.969 54.6C35.9101 54.4524 35.8168 54.3211 35.697 54.2167C35.5772 54.1124 35.4342 54.0381 35.28 54C33.784 53.629 32.3523 53.035 31.033 52.238C30.8974 52.1564 30.7444 52.1082 30.5866 52.0972C30.4287 52.0863 30.2705 52.1129 30.125 52.175L26.935 53.537C26.9085 53.5515 26.8783 53.5577 26.8482 53.5551C26.8182 53.5524 26.7895 53.5409 26.766 53.522C25.9363 52.8227 25.1685 52.0532 24.471 51.222C24.4572 51.1981 24.45 51.1711 24.45 51.1435C24.45 51.1159 24.4572 51.0889 24.471 51.065L25.832 47.875C25.8943 47.7293 25.921 47.5709 25.91 47.4129C25.8991 47.2549 25.8507 47.1017 25.769 46.966C24.9721 45.6467 24.3781 44.215 24.007 42.719C23.9689 42.5648 23.8946 42.4218 23.7903 42.302C23.6859 42.1822 23.5546 42.0889 23.407 42.03L20.194 40.747C20.1668 40.7368 20.1424 40.7202 20.1229 40.6986C20.1034 40.677 20.0894 40.6511 20.082 40.623V40.612C19.9745 39.535 19.9745 38.45 20.082 37.373C20.089 37.3457 20.1023 37.3204 20.1209 37.2992C20.1395 37.278 20.1628 37.2615 20.189 37.251L23.407 35.966C23.5546 35.9071 23.6859 35.8139 23.7903 35.694C23.8946 35.5742 23.9689 35.4313 24.007 35.277C24.3781 33.781 24.9721 32.3493 25.769 31.03C25.8507 30.8943 25.8991 30.7411 25.91 30.5831C25.921 30.4251 25.8943 30.2667 25.832 30.121L24.469 26.93C24.4549 26.9039 24.4486 26.8743 24.4507 26.8448C24.4528 26.8152 24.4633 26.7868 24.481 26.763C25.1807 25.9321 25.9501 25.1627 26.781 24.463C26.8051 24.4493 26.8323 24.4421 26.86 24.4421C26.8877 24.4421 26.9149 24.4493 26.939 24.463L30.127 25.824C30.2724 25.8867 30.4307 25.9137 30.5887 25.9028C30.7466 25.8918 30.8997 25.8432 31.035 25.761C32.3537 24.9645 33.7847 24.3709 35.28 24C35.4342 23.9619 35.5772 23.8876 35.697 23.7833C35.8168 23.6789 35.9101 23.5476 35.969 23.4L37.253 20.185C37.2633 20.1563 37.281 20.1308 37.3044 20.1111C37.3278 20.0914 37.3559 20.0783 37.386 20.073C38.4633 19.9729 39.5477 19.9729 40.625 20.073C40.6526 20.0798 40.6781 20.0933 40.6992 20.1123C40.7203 20.1313 40.7364 20.1553 40.746 20.182L42.031 23.4C42.0899 23.5476 42.1832 23.6789 42.303 23.7833C42.4228 23.8876 42.5658 23.9619 42.72 24C44.216 24.371 45.6477 24.965 46.967 25.762C47.1023 25.8442 47.2554 25.8928 47.4133 25.9038C47.5713 25.9147 47.7296 25.8877 47.875 25.825L51.065 24.463C51.0915 24.4487 51.1217 24.4425 51.1518 24.4451C51.1818 24.4478 51.2104 24.4592 51.234 24.478C52.0656 25.1768 52.8352 25.9464 53.534 26.778C53.5478 26.8019 53.555 26.8289 53.555 26.8565C53.555 26.8841 53.5478 26.9111 53.534 26.935L52.173 30.125C52.1107 30.2707 52.084 30.4291 52.095 30.5871C52.1059 30.7451 52.1542 30.8983 52.236 31.034C53.0329 32.3533 53.6269 33.785 53.998 35.281C54.0361 35.4353 54.1104 35.5782 54.2147 35.698C54.3191 35.8179 54.4504 35.9111 54.598 35.97L57.811 37.253C57.8398 37.264 57.8652 37.2822 57.885 37.3058C57.9048 37.3295 57.9182 37.3577 57.924 37.388C58.0297 38.4645 58.028 39.5488 57.919 40.625V40.621Z" fill="#5B8266"/>
        <path d="M39 26C36.4288 26 33.9154 26.7624 31.7776 28.1909C29.6398 29.6194 27.9735 31.6497 26.9896 34.0251C26.0056 36.4006 25.7482 39.0144 26.2498 41.5362C26.7514 44.0579 27.9895 46.3743 29.8076 48.1924C31.6257 50.0105 33.9421 51.2486 36.4638 51.7502C38.9856 52.2518 41.5995 51.9944 43.9749 51.0104C46.3503 50.0265 48.3807 48.3603 49.8091 46.2224C51.2376 44.0846 52 41.5712 52 39C51.996 35.5534 50.6251 32.2491 48.188 29.812C45.7509 27.3749 42.4466 26.004 39 26ZM39 50C36.8244 50 34.6977 49.3549 32.8887 48.1462C31.0798 46.9375 29.6699 45.2195 28.8373 43.2095C28.0048 41.1995 27.7869 38.9878 28.2114 36.854C28.6358 34.7202 29.6835 32.7602 31.2218 31.2218C32.7602 29.6834 34.7202 28.6358 36.854 28.2114C38.9878 27.7869 41.1995 28.0048 43.2095 28.8373C45.2195 29.6699 46.9375 31.0798 48.1462 32.8887C49.3549 34.6977 50 36.8244 50 39C49.9966 41.9163 48.8365 44.7122 46.7744 46.7744C44.7122 48.8365 41.9163 49.9966 39 50Z" fill="#5B8266"/>
        <path d="M39 31C37.4178 31 35.871 31.4692 34.5554 32.3482C33.2399 33.2273 32.2145 34.4767 31.609 35.9385C31.0035 37.4003 30.845 39.0089 31.1537 40.5607C31.4624 42.1126 32.2243 43.538 33.3432 44.6569C34.462 45.7757 35.8874 46.5376 37.4393 46.8463C38.9911 47.155 40.5997 46.9965 42.0615 46.391C43.5233 45.7855 44.7727 44.7602 45.6518 43.4446C46.5308 42.129 47 40.5823 47 39C46.9976 36.879 46.154 34.8456 44.6542 33.3458C43.1545 31.846 41.121 31.0024 39 31ZM39 45C37.8133 45 36.6533 44.6481 35.6666 43.9888C34.6799 43.3295 33.9109 42.3925 33.4567 41.2961C33.0026 40.1997 32.8838 38.9933 33.1153 37.8295C33.3468 36.6656 33.9182 35.5965 34.7574 34.7574C35.5965 33.9182 36.6656 33.3468 37.8295 33.1153C38.9933 32.8838 40.1997 33.0026 41.2961 33.4567C42.3925 33.9108 43.3295 34.6799 43.9888 35.6666C44.6481 36.6533 45 37.8133 45 39C44.9984 40.5908 44.3658 42.116 43.2409 43.2409C42.116 44.3658 40.5908 44.9984 39 45Z" fill="#5B8266"/>
        <path d="M4.57606 19.106C4.91106 19.263 5.26506 19.414 5.63306 19.56C5.8784 19.6511 6.14967 19.6424 6.38867 19.5358C6.62766 19.4292 6.81533 19.2331 6.9114 18.9896C7.00746 18.7462 7.00427 18.4748 6.9025 18.2337C6.80073 17.9926 6.6085 17.801 6.36706 17.7C6.03773 17.57 5.7234 17.4347 5.42406 17.294C5.18378 17.1816 4.90866 17.1692 4.65924 17.2596C4.40981 17.35 4.20651 17.5357 4.09406 17.776C3.98161 18.0163 3.96922 18.2914 4.05961 18.5408C4.15 18.7903 4.33578 18.9936 4.57606 19.106Z" fill="#5B8266"/>
        <path d="M9.77301 20.82C10.1097 20.8993 10.453 20.974 10.803 21.044C10.8688 21.0574 10.9359 21.0637 11.003 21.063C11.251 21.0633 11.4902 20.9714 11.6743 20.8051C11.8583 20.6389 11.974 20.4102 11.9989 20.1635C12.0239 19.9168 11.9562 19.6696 11.8091 19.4699C11.6621 19.2702 11.446 19.1324 11.203 19.083C10.873 19.017 10.55 18.946 10.233 18.873C10.1037 18.8391 9.96897 18.8314 9.83667 18.8504C9.70438 18.8694 9.57724 18.9148 9.46277 18.9838C9.3483 19.0528 9.24883 19.144 9.17022 19.2521C9.09162 19.3602 9.03548 19.483 9.00513 19.6131C8.97478 19.7433 8.97083 19.8782 8.99351 20.0099C9.0162 20.1416 9.06505 20.2675 9.1372 20.38C9.20934 20.4925 9.30331 20.5894 9.41355 20.665C9.52378 20.7406 9.64805 20.7933 9.77901 20.82H9.77301Z" fill="#5B8266"/>
    </g>
    <defs>
        <clipPath id="clip0_187_736">
            <rect width="60" height="60" fill="white"/>
        </clipPath>
    </defs>
</svg>
