<svg width="60" height="60" viewBox="0 0 60 60" fill="none"
    xmlns="http://www.w3.org/2000/svg">
    <path d="M54.6094 2.34375H5.39062C3.06445 2.34375 1.17188 4.23621 1.17188 6.5625V44.7827C1.17188 47.109 3.06434 49.0015 5.39062 49.0015H14.1211C15.3009 50.8249 16.7918 52.4507 18.5261 53.777C21.8443 56.3148 25.812 57.6562 30 57.6562C34.188 57.6562 38.1557 56.3148 41.4741 53.7769C43.2083 52.4505 44.6992 50.8248 45.879 49.0014H54.6094C56.9355 49.0014 58.8281 47.1089 58.8281 44.7826V6.5625C58.8281 4.23621 56.9355 2.34375 54.6094 2.34375ZM5.39062 3.75H54.6094C56.1601 3.75 57.4219 5.01176 57.4219 6.5625V12.5527H2.57812V6.5625C2.57812 5.01176 3.83977 3.75 5.39062 3.75ZM29.2969 48.5879V56.1912C26.82 55.776 24.5629 53.1894 23.0842 49.2755C25.0879 48.8623 27.1737 48.63 29.2969 48.5879ZM22.6248 47.9353C22.2918 46.8607 22.0148 45.7036 21.8014 44.481H29.2969V47.1814C27.0164 47.2248 24.7755 47.4797 22.6248 47.9353ZM30.7031 56.1912V48.5879C32.8263 48.6299 34.9122 48.8623 36.9158 49.2755C35.4371 53.1894 33.1799 55.776 30.7031 56.1912ZM30.7031 47.1814V44.481H38.1987C37.9852 45.7036 37.7082 46.8606 37.3753 47.9353C35.2246 47.4797 32.9837 47.2248 30.7031 47.1814ZM39.6265 44.481H46.5374C45.8435 46.483 44.7996 48.3054 43.4871 49.8863C41.9845 49.2254 40.3976 48.6797 38.748 48.2565C39.1107 47.0725 39.4052 45.8088 39.6265 44.481ZM42.6616 43.0747V34.4304H49.6356C50.5567 34.4304 51.306 35.1798 51.306 36.1008V41.4043C51.306 42.3253 50.5567 43.0747 49.6356 43.0747H42.6616ZM39.6265 33.0243C39.4052 31.6965 39.1107 30.4327 38.7482 29.2488C40.3977 28.8255 41.9848 28.2798 43.4872 27.619C44.7997 29.1998 45.8436 31.0222 46.5375 33.0243H39.6265ZM29.2969 21.3141V28.9174C27.1736 28.8755 25.0879 28.6431 23.0842 28.2298C24.5629 24.3159 26.8201 21.7293 29.2969 21.3141ZM29.2969 30.3239V33.0243H21.8013C22.0148 31.8018 22.2918 30.6448 22.6247 29.57C24.7755 30.0257 27.0163 30.2805 29.2969 30.3239ZM37.3753 29.57C37.7084 30.6446 37.9853 31.8016 38.1987 33.0243H30.7031V30.3239C32.9837 30.2805 35.2246 30.0257 37.3753 29.57ZM30.7031 28.9174V21.3141C33.1799 21.7293 35.4371 24.3159 36.9158 28.2298C34.9123 28.6431 32.8264 28.8754 30.7031 28.9174ZM38.2975 27.9127C37.7401 26.4063 37.0636 25.0542 36.2809 23.8936C35.7526 23.1103 35.1902 22.4373 34.6002 21.8766C37.6059 22.7031 40.3283 24.32 42.4896 26.5163C41.1541 27.0769 39.7518 27.5447 38.2975 27.9127ZM23.7191 23.8937C22.9364 25.0543 22.2598 26.4063 21.7025 27.9128C20.2484 27.5448 18.8459 27.077 17.5104 26.5164C19.6717 24.3203 22.3941 22.7032 25.3998 21.8767C24.8098 22.4374 24.2474 23.1104 23.7191 23.8937ZM16.5129 27.619C18.0154 28.2799 19.6024 28.8255 21.252 29.2488C20.8894 30.4327 20.5949 31.6965 20.3736 33.0243H13.4627C14.1565 31.0222 15.2004 29.1998 16.5129 27.619ZM41.2554 34.4305V43.0748H10.3645C9.44355 43.0748 8.69426 42.3254 8.69426 41.4045V36.1009C8.69426 35.1799 9.44355 34.4305 10.3645 34.4305H41.2554ZM20.3736 44.481C20.5949 45.8088 20.8893 47.0725 21.252 48.2565C19.6024 48.6797 18.0154 49.2254 16.5129 49.8863C15.2004 48.3054 14.1565 46.483 13.4626 44.481H20.3736ZM17.5104 50.989C18.8459 50.4285 20.2484 49.9607 21.7025 49.5926C22.2599 51.099 22.9363 52.451 23.7191 53.6116C24.2474 54.3949 24.8098 55.0679 25.3998 55.6287C22.3942 54.802 19.6717 53.1851 17.5104 50.989ZM34.6002 55.6286C35.1902 55.0678 35.7527 54.3948 36.281 53.6115C37.0637 52.4509 37.7402 51.099 38.2976 49.5925C39.7518 49.9605 41.1543 50.4284 42.4897 50.989C40.3283 53.1851 37.6059 54.802 34.6002 55.6286ZM54.6094 47.5952H46.7058C47.2356 46.5991 47.6764 45.5564 48.0188 44.4811H49.6355C51.332 44.4811 52.7121 43.101 52.7121 41.4045V36.1009C52.7121 34.4044 51.332 33.0243 49.6355 33.0243H48.0188C46.8529 29.3621 44.5444 26.0764 41.4741 23.7284C38.1558 21.1905 34.1882 19.849 30 19.849C25.8118 19.849 21.8442 21.1904 18.5259 23.7284C15.4556 26.0766 13.147 29.3621 11.9812 33.0243H10.3645C8.66813 33.0243 7.28801 34.4044 7.28801 36.1009V41.4045C7.28801 43.101 8.66813 44.4811 10.3645 44.4811H11.9812C12.3236 45.5564 12.7644 46.5991 13.2942 47.5952H5.39062C3.83988 47.5952 2.57812 46.3335 2.57812 44.7827V13.9589H57.4219V44.7826C57.4219 46.3335 56.1602 47.5952 54.6094 47.5952ZM7.45758 10.3898C8.69191 10.3898 9.69609 9.38566 9.69609 8.15121C9.69609 6.91699 8.69191 5.9127 7.45758 5.9127C6.22324 5.9127 5.21895 6.91687 5.21895 8.15121C5.21895 9.38566 6.22324 10.3898 7.45758 10.3898ZM7.45758 7.31906C7.91648 7.31906 8.28984 7.69242 8.28984 8.15133C8.28984 8.61023 7.91648 8.98371 7.45758 8.98371C6.99855 8.98371 6.6252 8.61023 6.6252 8.15133C6.6252 7.69242 6.99855 7.31906 7.45758 7.31906ZM14.2133 10.3898C15.4477 10.3898 16.452 9.38566 16.452 8.15121C16.452 6.91699 15.4478 5.9127 14.2133 5.9127C12.979 5.9127 11.9748 6.91687 11.9748 8.15121C11.9748 9.38566 12.9791 10.3898 14.2133 10.3898ZM14.2133 7.31906C14.6723 7.31906 15.0457 7.69242 15.0457 8.15133C15.0457 8.61023 14.6723 8.98371 14.2133 8.98371C13.7544 8.98371 13.3811 8.61023 13.3811 8.15133C13.3811 7.69242 13.7544 7.31906 14.2133 7.31906ZM20.9692 10.3898C22.2035 10.3898 23.2078 9.38566 23.2078 8.15121C23.2078 6.91699 22.2036 5.9127 20.9692 5.9127C19.7348 5.9127 18.7307 6.91687 18.7307 8.15121C18.7307 9.38566 19.735 10.3898 20.9692 10.3898ZM20.9692 7.31906C21.4282 7.31906 21.8016 7.69242 21.8016 8.15133C21.8016 8.61023 21.4282 8.98371 20.9692 8.98371C20.5103 8.98371 20.1369 8.61023 20.1369 8.15133C20.1369 7.69242 20.5103 7.31906 20.9692 7.31906ZM39.0308 10.3898H52.5425C53.7769 10.3898 54.7811 9.38566 54.7811 8.15121C54.7811 6.91699 53.7769 5.9127 52.5425 5.9127H39.0308C37.7965 5.9127 36.7923 6.91687 36.7923 8.15121C36.7923 9.38566 37.7965 10.3898 39.0308 10.3898ZM39.0308 7.31906H52.5425C53.0014 7.31906 53.3748 7.69242 53.3748 8.15133C53.3748 8.61023 53.0014 8.98371 52.5425 8.98371H39.0308C38.5719 8.98371 38.1986 8.61023 38.1986 8.15133C38.1986 7.69242 38.5719 7.31906 39.0308 7.31906ZM50.0245 40.7991L48.9663 39.7409C49.2136 39.3226 49.3562 38.8355 49.3562 38.3154C49.3562 36.7662 48.0959 35.5057 46.5465 35.5057C44.9972 35.5057 43.7368 36.7662 43.7368 38.3154C43.7368 39.8646 44.9973 41.1251 46.5465 41.1251C47.0666 41.1251 47.5537 40.9825 47.972 40.7352L49.0301 41.7933C49.1674 41.9306 49.3473 41.9993 49.5273 41.9993C49.7073 41.9993 49.8872 41.9306 50.0245 41.7933C50.2991 41.5188 50.2991 41.0736 50.0245 40.7991ZM45.1432 38.3155C45.1432 37.5416 45.7729 36.9121 46.5466 36.9121C47.3204 36.9121 47.9501 37.5416 47.9501 38.3155C47.9501 39.0894 47.3205 39.7189 46.5466 39.7189C45.7727 39.7189 45.1432 39.0893 45.1432 38.3155Z" fill="#5B8266"/>
</svg>
