<svg width="60" height="60" viewBox="0 0 60 60" fill="none"
    xmlns="http://www.w3.org/2000/svg">
    <path fill-rule="evenodd" clip-rule="evenodd" d="M35.3859 45C34.8675 45 34.4484 45.42 34.4484 45.9375V47.0259H25.5516V45.9375C25.5516 45.42 25.1325 45 24.6141 45H4.6875C4.17 45 3.75 45.42 3.75 45.9375V51.5625C3.75 52.08 4.17 52.5 4.6875 52.5H55.3125C55.83 52.5 56.25 52.08 56.25 51.5625V45.9375C56.25 45.42 55.83 45 55.3125 45H35.3859ZM36.3234 46.875H54.375V50.625H5.625V46.875H23.6766V47.9634C23.6766 48.4809 24.0966 48.9009 24.6141 48.9009H35.3859C35.9034 48.9009 36.3234 48.4809 36.3234 47.9634V46.875ZM56.25 8.4375C56.25 7.92 55.83 7.5 55.3125 7.5H4.6875C4.17 7.5 3.75 7.92 3.75 8.4375V42.1875C3.75 42.705 4.17 43.125 4.6875 43.125H55.3125C55.83 43.125 56.25 42.705 56.25 42.1875V8.4375ZM54.375 9.375V41.25H5.625V9.375H54.375ZM11.1187 38.4375C11.1187 38.955 11.5387 39.375 12.0562 39.375H32.9437C33.4613 39.375 33.8812 38.955 33.8812 38.4375C33.8812 32.2322 28.785 27.1875 22.5 27.1875C16.215 27.1875 11.1187 32.2322 11.1187 38.4375ZM13.0406 37.5C13.5188 32.7628 17.5772 29.0625 22.5 29.0625C27.4228 29.0625 31.4813 32.7628 31.9594 37.5H13.0406ZM36.5625 30.4688C36.5625 30.9862 36.9825 31.4062 37.5 31.4062H51.5625C52.08 31.4062 52.5 30.9862 52.5 30.4688V20.1562C52.5 19.7644 52.2553 19.4128 51.8878 19.2769C51.5194 19.1409 51.1059 19.2478 50.8509 19.5459L48.3188 22.5H37.5C36.9825 22.5 36.5625 22.92 36.5625 23.4375V30.4688ZM38.4375 29.5312V24.375H48.75C49.0238 24.375 49.2834 24.255 49.4616 24.0478L50.625 22.6903V29.5312H38.4375ZM22.5 11.25C18.2887 11.25 14.8687 14.6691 14.8687 18.8812C14.8687 23.0925 18.2887 26.5116 22.5 26.5116C26.7113 26.5116 30.1312 23.0925 30.1312 18.8812C30.1312 14.6691 26.7113 11.25 22.5 11.25ZM22.5 13.125C25.6772 13.125 28.2562 15.7041 28.2562 18.8812C28.2562 22.0575 25.6772 24.6366 22.5 24.6366C19.3228 24.6366 16.7438 22.0575 16.7438 18.8812C16.7438 15.7041 19.3228 13.125 22.5 13.125ZM33.75 11.25C33.2325 11.25 32.8125 11.67 32.8125 12.1875V23.4375C32.8125 23.8397 33.0694 24.1969 33.4509 24.3263C33.8316 24.4547 34.2525 24.3253 34.4963 24.0047L37.4241 20.1562H47.8125C48.33 20.1562 48.75 19.7362 48.75 19.2188V12.1875C48.75 11.67 48.33 11.25 47.8125 11.25H33.75ZM34.6875 13.125H46.875V18.2812H36.96C36.6666 18.2812 36.3909 18.4181 36.2137 18.6516L34.6875 20.6569V13.125Z" fill="#5B8266"/>
</svg>
