<svg width="60" height="60" viewBox="0 0 60 60" fill="none"
    xmlns="http://www.w3.org/2000/svg">
    <path d="M56.6063 22.0781L49.6875 18.4969V8.4375C49.6853 7.69225 49.3883 6.97814 48.8613 6.45117C48.3344 5.92419 47.6203 5.62718 46.875 5.625H13.125C12.3798 5.62718 11.6657 5.92419 11.1387 6.45117C10.6117 6.97814 10.3147 7.69225 10.3125 8.4375V18.4969L3.39376 22.0781C2.93486 22.3153 2.55027 22.6744 2.28232 23.1161C2.01436 23.5577 1.87342 24.0647 1.87501 24.5812V51.5625C1.87719 52.3078 2.1742 53.0219 2.70118 53.5488C3.22815 54.0758 3.94226 54.3728 4.68751 54.375H55.3125C56.0578 54.3728 56.7719 54.0758 57.2988 53.5488C57.8258 53.0219 58.1228 52.3078 58.125 51.5625V24.5812C58.1266 24.0647 57.9857 23.5577 57.7177 23.1161C57.4498 22.6744 57.0652 22.3153 56.6063 22.0781ZM21.8719 38.4375L3.75001 51.4583V25.137L21.8719 38.4375ZM28.3594 36.0844C28.8377 35.7415 29.4115 35.557 30 35.557C30.5886 35.557 31.1623 35.7415 31.6406 36.0844L54.4803 52.5H5.52798L28.3594 36.0844ZM38.1469 38.4562L56.25 25.3219V51.4675L38.1469 38.4562ZM55.4369 23.5883L49.6875 27.7594V20.6156L55.4369 23.5883ZM12.1875 8.4375C12.1882 8.18908 12.2872 7.95104 12.4629 7.77538C12.6386 7.59972 12.8766 7.50072 13.125 7.5H46.875C47.1234 7.50072 47.3615 7.59972 47.5371 7.77538C47.7128 7.95104 47.8118 8.18908 47.8125 8.4375V29.1187L36.5438 37.3031L32.7375 34.5656C31.9409 33.9897 30.983 33.6797 30 33.6797C29.017 33.6797 28.0591 33.9897 27.2625 34.5656L23.4656 37.2937L12.1875 28.9594V8.4375ZM10.3125 27.5906L4.70514 23.5148L10.3125 20.6156V27.5906Z" fill="#5B8266"/>
    <path d="M30 25.729C28.9802 25.729 27.9833 25.4266 27.1353 24.86C26.2874 24.2934 25.6265 23.4881 25.2362 22.546C24.846 21.6038 24.7439 20.567 24.9428 19.5668C25.1418 18.5666 25.6329 17.6479 26.354 16.9267C27.0751 16.2056 27.9939 15.7145 28.9941 15.5156C29.9943 15.3166 31.031 15.4187 31.9732 15.809C32.9154 16.1993 33.7207 16.8602 34.2873 17.7081C34.8538 18.556 35.1563 19.5529 35.1563 20.5728C35.1547 21.9398 34.611 23.2504 33.6443 24.2171C32.6777 25.1837 31.3671 25.7275 30 25.729ZM30 17.2915C29.351 17.2915 28.7166 17.4839 28.177 17.8445C27.6374 18.205 27.2169 18.7175 26.9685 19.3171C26.7202 19.9166 26.6552 20.5764 26.7818 21.2129C26.9084 21.8494 27.2209 22.4341 27.6798 22.893C28.1387 23.3518 28.7234 23.6644 29.3599 23.791C29.9964 23.9176 30.6561 23.8526 31.2557 23.6042C31.8553 23.3559 32.3677 22.9353 32.7283 22.3957C33.0888 21.8561 33.2813 21.2217 33.2813 20.5728C33.2802 19.7028 32.9342 18.8688 32.319 18.2537C31.7039 17.6386 30.8699 17.2925 30 17.2915Z" fill="#5B8266"/>
    <path d="M39.1338 18.1009H38.5125C38.3389 17.5063 38.1024 16.932 37.807 16.3875L38.2438 15.9508C38.6396 15.5534 38.8618 15.0154 38.8617 14.4545C38.8617 13.8936 38.6393 13.3557 38.2433 12.9584L37.666 12.3811C37.2687 11.9852 36.7307 11.7629 36.1698 11.763C35.6089 11.7631 35.0709 11.9855 34.6737 12.3816L34.248 12.8073C33.7006 12.507 33.1226 12.2661 32.524 12.0886V11.4912C32.5234 10.9302 32.3002 10.3923 31.9035 9.9956C31.5068 9.59888 30.9689 9.37569 30.4079 9.375H29.5923C29.0312 9.37567 28.4934 9.59884 28.0966 9.99557C27.6999 10.3923 27.4767 10.9302 27.4761 11.4912V12.0886C26.8775 12.2661 26.2996 12.507 25.7522 12.8073L25.326 12.3811C24.9287 11.9853 24.3908 11.7631 23.83 11.7631C23.2693 11.7631 22.7313 11.9853 22.3341 12.3811L21.7563 12.9589C21.3605 13.3562 21.1383 13.8943 21.1384 14.4551C21.1384 15.016 21.3608 15.554 21.7567 15.9512L22.1931 16.3875C21.8977 16.932 21.6612 17.5063 21.4876 18.1009H20.8664C20.3053 18.1015 19.7674 18.3246 19.3706 18.7214C18.9739 19.1181 18.7507 19.656 18.75 20.2171V21.0327C18.7507 21.5938 18.9738 22.1316 19.3706 22.5284C19.7673 22.9251 20.3052 23.1483 20.8662 23.1489H21.5048C21.6811 23.7365 21.9186 24.3038 22.2134 24.8417L21.7561 25.299C21.3603 25.6965 21.1381 26.2346 21.1382 26.7955C21.1382 27.3565 21.3606 27.8945 21.7566 28.2919L22.3339 28.8683C22.7311 29.2644 23.2691 29.4868 23.83 29.4868C24.391 29.4868 24.929 29.2644 25.3262 28.8683L25.7936 28.4008C26.3286 28.6913 26.8924 28.9251 27.4759 29.0985V29.7586C27.4765 30.3197 27.6996 30.8576 28.0964 31.2544C28.4931 31.6511 29.031 31.8743 29.5921 31.875H30.4077C30.9688 31.8743 31.5066 31.6512 31.9034 31.2544C32.3001 30.8577 32.5233 30.3198 32.5239 29.7588V29.0987C33.1074 28.9253 33.6712 28.6915 34.2062 28.401L34.674 28.8689C35.0713 29.2648 35.6094 29.4871 36.1703 29.487C36.7312 29.4869 37.2692 29.2645 37.6664 28.8684L38.2437 28.2911C38.6395 27.8938 38.8617 27.3557 38.8616 26.7949C38.8616 26.234 38.6392 25.696 38.2433 25.2988L37.7864 24.8419C38.0812 24.304 38.3187 23.7366 38.495 23.1491H39.1336C39.6947 23.1485 40.2326 22.9254 40.6294 22.5286C41.0261 22.1319 41.2493 21.594 41.25 21.0329V20.2173C41.2494 19.6562 41.0262 19.1183 40.6295 18.7215C40.2328 18.3247 39.6949 18.1015 39.1338 18.1009ZM39.375 21.0329C39.375 21.0969 39.3496 21.1582 39.3043 21.2034C39.2591 21.2487 39.1977 21.2741 39.1338 21.2741H37.7664C37.5508 21.2742 37.3418 21.3485 37.1747 21.4847C37.0075 21.6208 36.8923 21.8105 36.8486 22.0216C36.6678 22.8947 36.3199 23.7246 35.8241 24.4657C35.7039 24.646 35.6499 24.8624 35.6713 25.078C35.6927 25.2937 35.7881 25.4953 35.9413 25.6485L36.9172 26.624C36.9625 26.6693 36.9879 26.7308 36.988 26.7949C36.9881 26.859 36.9628 26.9205 36.9177 26.966L36.3414 27.5423C36.296 27.5874 36.2346 27.6128 36.1705 27.6129C36.1065 27.613 36.045 27.5877 35.9994 27.5427L35.0156 26.5594C34.8632 26.4066 34.6626 26.3112 34.4479 26.2893C34.2332 26.2673 34.0176 26.3202 33.8374 26.439C33.0971 26.9287 32.2696 27.2716 31.3999 27.4488C31.188 27.4919 30.9975 27.6068 30.8607 27.7743C30.7239 27.9417 30.6491 28.1513 30.6491 28.3675V29.7592C30.649 29.8231 30.6235 29.8843 30.5783 29.9295C30.5331 29.9746 30.4718 30 30.4079 30H29.5923C29.5283 30 29.467 29.9746 29.4217 29.9293C29.3765 29.8841 29.3511 29.8228 29.3511 29.7588V28.3672C29.3511 28.1509 29.2763 27.9413 29.1395 27.7739C29.0027 27.6065 28.8122 27.4915 28.6003 27.4484C27.7306 27.2712 26.9031 26.9284 26.1628 26.4386C25.9825 26.32 25.7668 26.2673 25.5521 26.2893C25.3374 26.3113 25.1369 26.4067 24.9844 26.5594L24.0011 27.5426C23.9558 27.5879 23.8944 27.6134 23.8304 27.6134C23.7663 27.6134 23.7049 27.5879 23.6596 27.5426L23.0828 26.9668C23.0376 26.9215 23.0122 26.8602 23.0121 26.7961C23.012 26.7321 23.0373 26.6707 23.0824 26.6253L24.0588 25.6489C24.212 25.4956 24.3074 25.294 24.3288 25.0784C24.3502 24.8627 24.2962 24.6464 24.176 24.466C23.6802 23.725 23.3323 22.8951 23.1515 22.022C23.1078 21.8108 22.9926 21.6212 22.8254 21.4851C22.6583 21.3489 22.4493 21.2746 22.2337 21.2745H20.8662C20.8345 21.2745 20.8031 21.2682 20.7738 21.2561C20.7446 21.2439 20.7179 21.2261 20.6955 21.2037C20.6731 21.1813 20.6554 21.1546 20.6433 21.1253C20.6312 21.096 20.625 21.0646 20.625 21.0329V20.2173C20.625 20.1533 20.6504 20.092 20.6957 20.0467C20.7409 20.0015 20.8023 19.9761 20.8662 19.9761H22.2217C22.4386 19.9761 22.6488 19.901 22.8165 19.7634C22.9842 19.6258 23.099 19.4344 23.1413 19.2217C23.3163 18.3418 23.6607 17.5044 24.1553 16.756C24.2738 16.5758 24.3266 16.3601 24.3047 16.1455C24.2828 15.9308 24.1875 15.7303 24.0349 15.5778L23.0827 14.6261C23.0375 14.5808 23.0121 14.5195 23.012 14.4555C23.0119 14.3914 23.0372 14.33 23.0823 14.2846L23.6595 13.7074C23.7048 13.6623 23.7661 13.637 23.83 13.637C23.8939 13.637 23.9553 13.6623 24.0006 13.7074L24.9454 14.6522C25.0985 14.8054 25.3 14.9008 25.5155 14.9223C25.7311 14.9437 25.9474 14.8898 26.1278 14.7698C26.8768 14.2687 27.7165 13.9187 28.5997 13.7394C28.8116 13.6965 29.0022 13.5815 29.1391 13.4141C29.2761 13.2466 29.3509 13.037 29.3509 12.8207V11.4913C29.3509 11.4273 29.3763 11.366 29.4215 11.3207C29.4668 11.2755 29.5281 11.25 29.5921 11.25H30.4077C30.4717 11.25 30.533 11.2754 30.5783 11.3207C30.6235 11.3659 30.6489 11.4273 30.6489 11.4912V12.8206C30.649 13.0369 30.7238 13.2465 30.8607 13.414C30.9976 13.5814 31.1882 13.6964 31.4002 13.7393C32.2833 13.9186 33.1229 14.2686 33.8719 14.7698C34.0523 14.8896 34.2686 14.9433 34.4841 14.9219C34.6996 14.9004 34.901 14.8051 35.0543 14.6521L35.9986 13.7078C36.044 13.6626 36.1054 13.6372 36.1695 13.6371C36.2335 13.637 36.295 13.6623 36.3406 13.7073L36.9169 14.2836C36.9621 14.3289 36.9876 14.3904 36.9877 14.4545C36.9877 14.5185 36.9625 14.5801 36.9173 14.6256L35.9648 15.5782C35.8122 15.7307 35.7169 15.9312 35.6949 16.1459C35.673 16.3605 35.7258 16.5762 35.8444 16.7564C36.3391 17.5045 36.6834 18.3418 36.8583 19.2215C36.9006 19.4342 37.0155 19.6256 37.1832 19.7632C37.3509 19.9008 37.5611 19.9759 37.778 19.9759H39.1334C39.1651 19.9758 39.1965 19.982 39.2258 19.9942C39.2551 20.0063 39.2818 20.024 39.3042 20.0464C39.3266 20.0688 39.3444 20.0954 39.3566 20.1247C39.3687 20.154 39.375 20.1854 39.375 20.2171V21.0329Z" fill="#5B8266"/>
</svg>
