<svg width="60" height="60" viewBox="0 0 60 60" fill="none"
    xmlns="http://www.w3.org/2000/svg">
    <path d="M18.6743 31.25C15.2341 31.25 12.417 34.0646 12.417 37.5049C12.417 40.9452 15.2341 43.7622 18.6743 43.7622H51.2451C53.3343 43.7622 55 45.4279 55 47.5171C55 49.6063 53.3343 51.2744 51.2451 51.2744H12.2119C11.642 49.1755 9.71246 47.6172 7.44141 47.6172C4.72688 47.6172 2.5 49.8441 2.5 52.5586C2.5 55.2731 4.72688 57.5 7.44141 57.5C9.73691 57.5 11.6827 55.9076 12.229 53.7744H51.2451C54.6854 53.7744 57.5 50.9574 57.5 47.5171C57.5 44.0768 54.6854 41.2622 51.2451 41.2622H18.6743C16.5852 41.2622 14.917 39.5941 14.917 37.5049C14.917 35.4157 16.5852 33.75 18.6743 33.75H43.75C44.0815 33.75 44.3994 33.6183 44.6339 33.3839C44.8683 33.1495 45 32.8315 45 32.5C45 32.1685 44.8683 31.8505 44.6339 31.6161C44.3994 31.3817 44.0815 31.25 43.75 31.25H18.6743ZM7.44141 50.1172C8.80483 50.1172 9.88281 51.1952 9.88281 52.5586C9.88281 53.922 8.80484 55 7.44141 55C6.07797 55 5 53.922 5 52.5586C5 51.1952 6.07798 50.1172 7.44141 50.1172Z" fill="#5B8266"/>
    <path d="M44.2676 2.5C36.9956 2.50071 31.07 8.39867 31.0693 15.647V15.6495C31.0828 20.9509 34.3358 25.6565 39.2139 27.688L43.2593 33.2374C43.7587 33.9211 44.7789 33.9211 45.2783 33.2374L49.3237 27.688C54.2018 25.6565 57.4548 20.9509 57.4683 15.6495C57.4683 7.72697 51.3857 2.5 44.2676 2.5ZM54.9683 15.6445C54.9558 20.0766 52.1958 24.033 48.02 25.5884C47.7903 25.6739 47.5908 25.825 47.4463 26.0229L44.2676 30.3784L41.0913 26.0229C40.9468 25.825 40.7473 25.6739 40.5176 25.5884C36.3426 24.0333 33.5827 20.078 33.5693 15.647V15.6445V15.642C33.5731 9.75303 38.3421 5.00046 44.268 5.00052C50.1939 5.00058 54.9663 9.75444 54.9683 15.6445Z" fill="#5B8266"/>
    <path d="M44.3457 8.44727C40.373 8.44726 37.1191 11.683 37.1191 15.647C37.1191 19.6109 40.373 22.8442 44.3457 22.8442C48.3184 22.8442 51.5698 19.6109 51.5698 15.647C51.5698 11.683 48.3184 8.44726 44.3457 8.44727ZM44.3457 10.9473C46.9734 10.9473 49.0698 13.0402 49.0698 15.647C49.0698 18.2537 46.9734 20.3442 44.3457 20.3442C41.718 20.3442 39.6191 18.2537 39.6191 15.647C39.6191 13.0402 41.718 10.9473 44.3457 10.9473Z" fill="#5B8266"/>
</svg>
