<svg width="60" height="60" viewBox="0 0 60 60" fill="none"
    xmlns="http://www.w3.org/2000/svg">
    <g clip-path="url(#clip0_187_799)">
        <path d="M56.4327 3.01563L55.6962 3.84714L47.302 13.3247C35.8809 26.2442 19.0715 33.0749 1.86538 31.5796L1.85665 31.5789L1.85666 31.5788C1.20552 31.5107 0.565244 32.0287 0.504846 32.7246L0.504835 32.7247C0.444699 33.4155 0.956293 34.025 1.64973 34.0852C1.64975 34.0852 1.64977 34.0852 1.6498 34.0852L1.60656 34.5833L56.4327 3.01563ZM56.4327 3.01563H55.3219M56.4327 3.01563H55.3219M55.3219 3.01563H51.2109C50.5154 3.01563 49.953 2.45327 49.953 1.75781C49.953 1.06235 50.5154 0.5 51.2109 0.5H58.2421C58.7851 0.5 59.2401 0.857512 59.4083 1.3719M55.3219 3.01563L59.4083 1.3719M59.4083 1.3719L59.4999 3.50316L59.4083 1.3719Z" stroke="#5B8266"/>
        <path d="M55.8672 56.9844V56.4844V16.9641C55.8672 16.4368 55.5377 15.9651 55.0413 15.7826C54.544 15.6043 53.9877 15.7509 53.6473 16.1538L52.568 17.4354L52.5679 17.4356C50.7681 19.5711 48.8073 21.6013 46.7368 23.4656L46.7364 23.466C46.4715 23.7039 46.3203 24.0439 46.3203 24.4003V56.4844V56.9844H45.8203H42.3047H41.8047V56.4844V29.885C41.8047 29.4213 41.5481 28.9935 41.1396 28.7747C40.7279 28.5576 40.2277 28.5822 39.8471 28.8399L39.8456 28.8409C37.6459 30.319 35.3272 31.6687 32.953 32.8556L32.9525 32.8559C32.5271 33.068 32.2578 33.5037 32.2578 33.9809V56.4844V56.9844H31.7578H28.2422H27.7422V56.4844V36.978C27.7422 36.5692 27.5433 36.1858 27.2088 35.9496C26.8785 35.717 26.4477 35.6588 26.0604 35.7947C26.0602 35.7948 26.0599 35.7948 26.0597 35.7949L25.8939 35.3232M55.8672 56.9844L19.0566 37.3248C21.3638 36.7926 23.664 36.118 25.8939 35.3232M55.8672 56.9844H56.3672H58.2422C58.9376 56.9844 59.5 57.5467 59.5 58.2422C59.5 58.9376 58.9376 59.5 58.2422 59.5H1.75781C1.06235 59.5 0.5 58.9376 0.5 58.2422C0.5 57.5467 1.06235 56.9844 1.75781 56.9844H3.63293H4.13293V56.4844V40.655C4.13293 39.9615 4.69531 39.3985 5.38989 39.3972C7.6881 39.3938 10.0052 39.2605 12.2795 39.0009L12.2795 39.0011L12.293 38.9992C12.618 38.9531 12.9835 39.0673 13.2603 39.3121C13.5265 39.5504 13.6797 39.8919 13.6797 40.2499V56.4844V56.9844H14.1797H17.6953H18.1953V56.4844V39.038C18.1953 38.4524 18.599 37.9449 19.1694 37.8119L55.8672 56.9844ZM25.8939 35.3232C26.4312 35.1343 27.032 35.2133 27.4972 35.5412C27.9641 35.8709 28.2422 36.4064 28.2422 36.978V55.9844V56.4844H28.7422H31.2578H31.7578V55.9844V33.9809C31.7578 33.3148 32.1337 32.7054 32.7294 32.4084C35.0846 31.2309 37.3849 29.8919 39.5667 28.4259M25.8939 35.3232L39.5667 28.4259M39.5667 28.4259C40.104 28.0621 40.8027 28.0311 41.3743 28.3332C41.9459 28.6387 42.3047 29.2362 42.3047 29.885L39.5667 28.4259Z" stroke="#5B8266"/>
    </g>
    <defs>
        <clipPath id="clip0_187_799">
            <rect width="60" height="60" fill="white"/>
        </clipPath>
    </defs>
</svg>
