<svg width="60" height="60" viewBox="0 0 60 60" fill="none"
    xmlns="http://www.w3.org/2000/svg">
    <path d="M44.8871 10.9816L44.1904 11.699L44.4751 11.9755L44.8719 11.9815L44.8721 11.9815L44.8727 11.9815L44.875 11.9816L44.8841 11.9817L44.9198 11.9823L45.0556 11.9844L45.5421 11.992C45.9457 11.9983 46.486 12.007 47.0331 12.0163C47.5803 12.0255 48.1335 12.0353 48.563 12.0439C48.715 12.047 48.8508 12.0499 48.965 12.0525C49.2613 14.0658 50.7416 24.0789 52.2155 34.0469L54.4655 49.2614L55.206 54.2685L55.354 55.2689L40.4284 58.9788L4.63856 52.7898L4.70537 52.2732L5.20692 48.3956C5.62271 45.1814 6.17885 40.8833 6.7402 36.5476C7.86364 27.8707 9.00617 19.0578 9.08891 18.4633C9.1461 18.0524 9.1835 17.814 9.2277 17.6464C9.24856 17.5673 9.26494 17.529 9.27266 17.5138C9.28811 17.502 9.33818 17.4685 9.46193 17.416C9.65358 17.3347 9.92279 17.2469 10.3563 17.1109L10.358 17.1104L10.3649 17.1082L10.3891 17.1007L10.4765 17.0736L10.799 16.9737L11.9816 16.6074L16.0754 15.3396L16.682 15.1517L16.682 15.1516L18.145 14.6985L23.2102 13.13L23.618 13.0037L23.618 13.0038L25.3361 12.4718L31.5036 10.5621L32.1598 10.3589L32.1598 10.359L33.4361 9.96368L36.3029 9.07604L37.1965 8.79943L37.2569 8.78076L38.1534 8.50321C39.2871 8.15222 39.9398 7.95011 39.9348 7.9516L39.935 7.95154C39.9541 7.94592 40.0007 7.9343 40.0638 7.92517C40.1262 7.91613 40.1894 7.91178 40.2454 7.91346C40.2719 7.91426 40.2924 7.91629 40.3074 7.91843C40.5817 8.18947 41.4951 9.07887 42.3598 9.91983C42.8285 10.3757 43.2862 10.8205 43.6266 11.1513L44.0362 11.5492L44.1502 11.6599L44.1802 11.689L44.1878 11.6965L44.1898 11.6984L44.1903 11.6989L44.1904 11.699L44.8871 10.9816ZM30.3028 2.8435L30.6121 2.68288L30.6325 2.70746L30.3028 2.8435ZM30.9211 3.03808L30.8007 2.78732L30.8231 2.78528L30.9211 3.03808ZM9.27749 17.5055C9.27752 17.5057 9.27668 17.5072 9.27487 17.5096C9.27656 17.5066 9.27746 17.5054 9.27749 17.5055ZM9.2683 17.5173C9.26746 17.5181 9.26697 17.5185 9.26694 17.5185C9.26692 17.5185 9.26734 17.5181 9.2683 17.5173Z" stroke="#5B8266" stroke-width="2"/>
    <path d="M44.8871 10.9816L44.1904 11.699L44.4751 11.9755L44.8719 11.9815L44.8871 10.9816ZM44.8871 10.9816L44.1903 11.6989L44.1902 11.6988L44.1897 11.6984L44.1878 11.6965L44.1801 11.689L44.1502 11.6599L44.0361 11.5492L43.6266 11.1513C43.2861 10.8204 42.8285 10.3757 42.3598 9.91981C42.0582 9.62647 41.7506 9.32723 41.4663 9.0504L41.4672 58.7206L55.354 55.2689L55.206 54.2685L54.4655 49.2614L52.2156 34.0469C50.7415 24.0782 49.2612 14.0648 48.965 12.0525C48.8507 12.0499 48.7149 12.047 48.563 12.0439C48.1334 12.0353 47.5803 12.0255 47.033 12.0162C46.486 12.007 45.9457 11.9983 45.5421 11.9919L45.0556 11.9843L44.9198 11.9822L44.8841 11.9817L44.875 11.9816L44.8727 11.9815L44.8721 11.9815L44.8719 11.9815L44.8871 10.9816Z" stroke="#5B8266" stroke-width="2"/>
    <path d="M30.3845 19.9455L29.0474 24.947C28.9214 24.9092 28.7862 24.871 28.6426 24.8333C27.7502 24.5991 26.5053 24.3797 25.1369 24.4661C23.1129 24.5939 21.8773 25.3213 21.204 26.3084C20.5637 27.2473 20.5702 28.2265 20.5938 28.5993L20.5938 28.5993C20.6723 29.843 21.5463 30.7071 22.3828 31.3486C22.8205 31.6842 23.317 32.0092 23.8132 32.3284C23.8958 32.3815 23.9785 32.4345 24.0613 32.4876C24.4863 32.7602 24.9144 33.0348 25.3452 33.3323C27.3835 34.7399 29.2338 36.4933 29.4349 39.6773L30.2382 39.6266L29.4349 39.6773C29.6024 42.3312 28.8964 44.4855 27.6609 45.9974C26.4288 47.5053 24.6163 48.4422 22.4257 48.5805C19.7006 48.7526 17.6028 48.0358 16.1898 47.2846C15.4815 46.9081 14.9455 46.5229 14.5916 46.2369C14.5491 46.2026 14.5092 46.1697 14.4721 46.1384L15.2578 42.7955C15.5123 42.9475 15.7978 43.1093 16.1064 43.2699C17.2802 43.8812 18.9538 44.5673 20.5453 44.4668L20.5453 44.4668C21.6901 44.3945 22.5402 43.8749 23.0743 43.1541C23.5855 42.4641 23.7767 41.6339 23.7324 40.931L23.7324 40.9309C23.6482 39.5978 23.0225 38.6334 22.2373 37.8658C21.6728 37.3139 20.9618 36.8097 20.299 36.3397C20.0983 36.1974 19.9021 36.0582 19.7156 35.9218C18.865 35.2993 18.0914 34.6548 17.4992 33.8123C16.9191 32.9871 16.4842 31.9296 16.3903 30.4432C16.2281 27.8729 16.9917 25.3132 18.6974 23.343C20.394 21.3833 23.0856 19.9348 26.9182 19.6928C28.3881 19.6001 29.4786 19.7425 30.1831 19.8982C30.2541 19.9139 30.3212 19.9297 30.3845 19.9455ZM31.1545 20.1958L31.1531 20.1951C31.1551 20.1961 31.1555 20.1963 31.1545 20.1958Z" stroke="#5B8266" stroke-width="2"/>
</svg>
