<svg xmlns="http://www.w3.org/2000/svg" width="51" height="58" viewBox="0 0 51 58" fill="none">
    <g clip-path="url(#clip0_166_57)">
        <path d="M44.4482 11.3895C44.4876 11.6797 50.7471 53.9989 50.7471 53.9989L32.9159 57.8565L0.00732422 51.6905C0.00732422 51.6905 4.23058 19.0299 4.3905 17.8785C4.60234 16.3577 4.65333 16.3067 6.26735 15.8005C6.52971 15.718 8.58409 15.0811 11.4756 14.1851C12.5904 9.45748 16.1457 0.15482 23.5873 0.15482C24.5593 0.15482 25.6848 0.67676 26.5933 1.87824C26.6842 1.87314 26.775 1.86943 26.8631 1.86943C30.0578 1.86943 31.8734 4.59038 32.9025 7.55097C33.9533 7.22603 34.5883 7.02996 34.6264 7.01883C34.8827 6.94328 35.5432 6.84037 35.8816 7.17875C36.2195 7.51713 39.2997 10.5751 39.2997 10.5751C39.2997 10.5751 43.7348 10.9037 43.9443 10.9213C44.1543 10.9389 44.4083 11.0993 44.4482 11.3895ZM31.0836 8.1137C30.3781 5.95827 29.2818 4.08559 27.6358 3.87885C28.0456 5.05345 28.301 6.5349 28.301 8.37513C28.301 8.58604 28.3 8.77933 28.2991 8.97541C29.3175 8.66021 30.2571 8.36957 31.0836 8.1137ZM25.5939 4.24365C23.7792 5.02239 21.7035 7.08651 20.5961 11.3603C22.5685 10.7494 24.5362 10.1403 26.3472 9.57939C26.3481 9.47417 26.349 9.37034 26.349 9.25677C26.349 7.03598 26.0514 5.39044 25.5939 4.24365ZM23.3829 2.1508C18.0379 2.1508 15.0351 9.1687 13.7706 13.474C15.1964 13.0323 16.7386 12.5548 18.3165 12.0663C19.396 6.4218 21.9524 3.59517 24.3373 2.47295C24.0277 2.25973 23.7041 2.1508 23.3829 2.1508ZM26.8631 20.7737C26.8631 20.7737 25.377 19.912 22.3687 19.912C14.5614 19.912 10.6936 25.1268 10.6936 30.5154C10.6936 36.9177 17.0816 37.0915 17.0816 40.988C17.0816 41.9299 16.4155 43.219 14.7783 43.219C12.2724 43.219 9.30303 40.6695 9.30303 40.6695L7.79052 45.6669C7.79052 45.6669 10.6793 49.1828 16.3284 49.1828C21.036 49.1828 24.5273 45.6382 24.5273 40.1337C24.5273 33.1371 16.7409 31.9927 16.7409 29.0056C16.7409 28.4582 16.9152 26.2856 20.3769 26.2856C22.7381 26.2856 24.6646 27.3137 24.6646 27.3137L26.8631 20.7737Z" fill="white"/>
    </g>
    <defs>
        <clipPath id="clip0_166_57">
            <rect width="50.75" height="58" fill="white"/>
        </clipPath>
    </defs>
</svg>