<svg width="58" height="58" viewBox="0 0 58 58" fill="none"
    xmlns="http://www.w3.org/2000/svg">
    <g clip-path="url(#clip0_166_53)">
        <path d="M48.1788 0H9.6673C4.32886 0 0 4.32754 0 9.6673V48.1788C0 53.5185 4.32886 57.8461 9.6673 57.8461H48.1788C53.5185 57.8461 57.8461 53.5185 57.8461 48.1788V9.6673C57.8474 4.32754 53.5198 0 48.1788 0ZM47.3296 44.2811C47.3296 45.9664 45.9637 47.3309 44.2798 47.3309H13.5729C11.8876 47.3309 10.5218 45.9664 10.5218 44.2811V13.5729C10.5218 11.8876 11.8876 10.5218 13.5729 10.5218H44.2798C45.9637 10.5218 47.3296 11.8876 47.3296 13.5729V44.2811Z" fill="white"/>
        <path d="M22.7852 36.8117C21.8177 36.8117 21.0342 36.023 21.0342 35.0515V22.7945C21.0342 21.8231 21.8177 21.0343 22.7852 21.0343H35.0606C36.0307 21.0343 36.8116 21.8231 36.8116 22.7945V35.0515C36.8116 36.023 36.0307 36.8117 35.0606 36.8117H22.7852Z" fill="white"/>
    </g>
    <defs>
        <clipPath id="clip0_166_53">
            <rect width="58" height="58" fill="white"/>
        </clipPath>
    </defs>
</svg>
