<svg width="60" height="60" viewBox="0 0 60 60" fill="none"
    xmlns="http://www.w3.org/2000/svg">
    <g clip-path="url(#clip0_187_658)">
        <path d="M35.3906 4.6875C34.7438 4.6875 34.2188 5.21255 34.2188 5.85938C34.2188 6.5062 34.7438 7.03125 35.3906 7.03125C36.0374 7.03125 36.5625 6.5062 36.5625 5.85938C36.5625 5.21255 36.0374 4.6875 35.3906 4.6875Z" fill="#5B8266"/>
        <path d="M44.7656 4.6875H40.0781C39.4308 4.6875 38.9062 5.2121 38.9062 5.85938C38.9062 6.50665 39.4308 7.03125 40.0781 7.03125H44.7656C45.4129 7.03125 45.9375 6.50665 45.9375 5.85938C45.9375 5.2121 45.4129 4.6875 44.7656 4.6875Z" fill="#5B8266"/>
        <path d="M54.1406 4.6875H49.4531C48.8058 4.6875 48.2812 5.2121 48.2812 5.85938C48.2812 6.50665 48.8058 7.03125 49.4531 7.03125H54.1406C54.7879 7.03125 55.3125 6.50665 55.3125 5.85938C55.3125 5.2121 54.7879 4.6875 54.1406 4.6875Z" fill="#5B8266"/>
        <path d="M56.4844 0H3.51562C1.577 0 0 1.577 0 3.51562V56.4844C0 58.423 1.577 60 3.51562 60H56.4844C58.423 60 60 58.423 60 56.4844V3.51562C60 1.577 58.423 0 56.4844 0ZM57.6562 56.4844C57.6562 57.1307 57.1307 57.6562 56.4844 57.6562H3.51562C2.86926 57.6562 2.34375 57.1307 2.34375 56.4844V11.7188H57.6562V56.4844ZM57.6562 9.375H2.34375V3.51562C2.34375 2.86926 2.86926 2.34375 3.51562 2.34375H56.4844C57.1307 2.34375 57.6562 2.86926 57.6562 3.51562V9.375Z" fill="#5B8266"/>
        <path d="M8.90625 26.4844H51.0938C51.741 26.4844 52.2656 25.9598 52.2656 25.3125V18.2812C52.2656 17.634 51.741 17.1094 51.0938 17.1094H8.90625C8.25897 17.1094 7.73438 17.634 7.73438 18.2812V25.3125C7.73438 25.9598 8.25897 26.4844 8.90625 26.4844ZM10.0781 19.4531H49.9219V24.1406H10.0781V19.4531Z" fill="#5B8266"/>
        <path d="M8.90625 52.6172H22.9688C23.616 52.6172 24.1406 52.0926 24.1406 51.4453V32.6953C24.1406 32.048 23.616 31.5234 22.9688 31.5234H8.90625C8.25897 31.5234 7.73438 32.048 7.73438 32.6953V51.4453C7.73438 52.0926 8.25897 52.6172 8.90625 52.6172ZM10.0781 33.8672H21.7969V50.2734H10.0781V33.8672Z" fill="#5B8266"/>
        <path d="M51.0938 31.5234H30C29.9886 31.5234 29.9776 31.5248 29.9661 31.5253C29.323 31.5436 28.8281 32.0741 28.8281 32.6953V51.4453C28.8281 51.4522 28.829 51.459 28.829 51.4659C28.8405 52.1127 29.3715 52.6172 30 52.6172H51.0938C51.7255 52.6172 52.2533 52.1109 52.2647 51.4659C52.2647 51.459 52.2656 51.4522 52.2656 51.4453V32.6953C52.2656 32.0554 51.7438 31.5234 51.0938 31.5234ZM48.0116 33.8672L40.5469 40.5025L33.0821 33.8672H48.0116ZM31.1719 35.305L38.7831 42.0703L31.1719 48.8356V35.305ZM33.0821 50.2734L40.5469 43.6382L48.0116 50.2734H33.0821ZM49.9219 48.8356L42.3106 42.0703L49.9219 35.305V48.8356Z" fill="#5B8266"/>
    </g>
    <defs>
        <clipPath id="clip0_187_658">
            <rect width="60" height="60" fill="white"/>
        </clipPath>
    </defs>
</svg>
