<svg width="58" height="58" viewBox="0 0 58 58" fill="none"
    xmlns="http://www.w3.org/2000/svg">
    <g clip-path="url(#clip0_166_51)">
        <path d="M57.4927 7.45986C58.1187 6.34292 58.3673 5.46919 57.0319 5.61658H48.622C46.2963 5.48641 43.0387 8.58692 39.8664 12.2985C38.5624 8.75857 36.8682 5.83137 33.2997 5.84699H23.6576C23.6576 5.84699 20.6163 5.80112 18.1956 12.1941C17.3293 10.3019 12.2348 6.22331 10.5519 5.61746C8.869 5.01161 1.92298 5.16804 0.696777 5.50138C-0.529426 5.83471 0.235957 6.88384 0.235957 6.88384C2.39419 9.34164 9.05849 25.5648 17.271 29.4692L5.9962 50.4312C5.17239 51.5584 5.37744 52.3477 6.62982 52.7929L16.7103 52.6201C19.0052 52.3099 20.6307 51.1536 21.7793 49.3944L29.082 38.3875L37.4471 50.4888C38.6662 51.8111 40.8999 52.3757 41.8825 52.3897H51.0413C52.3963 52.3139 52.7201 52.0946 52.4237 50.8921L40.877 29.4736C49.9468 24.7406 54.2055 11.5561 57.4927 7.45986ZM33.3905 11.1372L36.6489 11.1059C35.8504 12.1561 34.7348 12.6503 33.2966 12.5784L33.3905 11.1372ZM34.8977 13.5258C36.2127 13.7724 36.5832 14.3677 36.2821 17.0196C35.981 19.6715 32.9334 18.7269 32.7908 17.2299C32.6482 15.7328 33.5828 13.2791 34.8977 13.5258ZM31.4066 18.6457C31.3022 19.7509 31.2088 20.931 28.9674 21.1288C26.4478 21.3511 26.3086 18.8435 26.3086 18.8435C28.6159 20.4476 29.9578 20.1308 31.4066 18.6457ZM24.4318 11.1372L24.5258 12.5784C23.0876 12.6503 21.972 12.1561 21.1735 11.1059L24.4318 11.1372ZM25.0315 17.2299C24.889 18.7269 21.8414 19.6715 21.5402 17.0196C21.2391 14.3677 21.6097 13.7724 22.9246 13.5258C24.2395 13.2791 25.1741 15.7328 25.0315 17.2299ZM37.8217 28.9838C37.8217 28.9838 48.537 47.6418 49.0828 49.2792C45.6266 50.5848 40.1593 50.323 38.0856 48.2494C36.0119 46.1757 29.498 34.1874 29.498 34.1874L19.9694 48.2494C18.8797 49.9184 17.8378 49.9806 15.9003 50.2531L8.37668 50.2497L15.0657 38.1298C22.5157 27.531 29.0421 24.9229 36.7694 22.2317C42.2113 20.3365 46.5029 18.8316 51.5566 14.078C49.3677 18.3981 43.1996 26.1774 37.8217 28.9838Z" fill="white"/>
    </g>
    <defs>
        <clipPath id="clip0_166_51">
            <rect width="58" height="58" fill="white"/>
        </clipPath>
    </defs>
</svg>
