<svg width="58" height="58" viewBox="0 0 58 58" fill="none"
    xmlns="http://www.w3.org/2000/svg">
    <g clip-path="url(#clip0_166_48)">
        <path d="M4.12216 28.9991C4.12216 38.8467 9.84481 47.3561 18.1431 51.3893L6.27603 18.8745C4.85343 22.0601 4.11947 25.5102 4.12216 28.9991ZM45.7945 27.7437C45.7945 29.8734 44.976 32.3449 43.9 35.7859L41.419 44.078L32.4287 17.3351C33.9255 17.2565 35.276 17.0979 35.276 17.0979C36.6162 16.9393 36.4585 14.9696 35.1165 15.0486C35.1165 15.0486 31.0881 15.3644 28.4864 15.3644C26.0419 15.3644 21.9334 15.0486 21.9334 15.0486C20.5928 14.9696 20.4357 17.0193 21.7763 17.0979C21.7763 17.0979 23.0454 17.2565 24.3851 17.3351L28.2615 27.9543L22.8168 44.2825L13.7573 17.3355C15.2569 17.2569 16.6051 17.0984 16.6051 17.0984C17.9443 16.9398 17.7862 14.9701 16.4451 15.0491C16.4451 15.0491 12.4171 15.3649 9.81499 15.3649C9.34824 15.3649 8.7977 15.353 8.21403 15.3355C12.6624 8.58137 20.3088 4.12216 29 4.12216C35.4767 4.12216 41.3736 6.59792 45.8001 10.6529C45.6922 10.6467 45.5876 10.633 45.4773 10.633C43.0342 10.633 41.3002 12.7618 41.3002 15.0486C41.3002 17.0979 42.4818 18.8333 43.7428 20.8825C44.6901 22.5398 45.7945 24.6691 45.7945 27.7437ZM29.4365 31.1752L37.0843 52.1254C37.1327 52.2448 37.192 52.3595 37.2614 52.4681C34.6753 53.377 31.8971 53.8783 29 53.8783C26.621 53.8783 24.2542 53.5369 21.9722 52.8643L29.4365 31.1752ZM50.8293 17.0633C52.8352 20.7213 53.8835 24.8272 53.8769 28.9991C53.8769 38.1774 48.9022 46.1902 41.5061 50.5031L49.1053 28.5323C50.5254 24.9839 50.9969 22.146 50.9969 19.6215C50.9969 18.7069 50.9363 17.8558 50.8293 17.0633ZM29 0C44.9897 0 58.0009 13.0089 58.0014 28.9991C58.0014 44.9916 44.9897 58 29 58C13.0093 58 0 44.9911 0 28.9991C0 13.0089 13.0098 0 29 0ZM29 56.6703C44.256 56.6703 56.6689 44.2569 56.6689 28.9991C56.6689 13.7426 44.2565 1.33019 29 1.33019C13.7426 1.33019 1.32972 13.7426 1.32972 28.9991C1.32972 44.2569 13.7431 56.6703 29 56.6703Z" fill="white"/>
    </g>
    <defs>
        <clipPath id="clip0_166_48">
            <rect width="58" height="58" fill="white"/>
        </clipPath>
    </defs>
</svg>
