<svg width="60" height="60" viewBox="0 0 60 60" fill="none"
    xmlns="http://www.w3.org/2000/svg">
    <g clip-path="url(#clip0_187_689)">
        <path d="M21.4996 47.5298L12.2019 22.0704C11.1199 24.4943 10.5154 27.1744 10.5154 30.0005C10.5154 37.7068 14.9965 44.3761 21.4996 47.5298Z" fill="#5B8266"/>
        <path d="M30.3451 31.7054L24.4968 48.693C26.2428 49.2043 28.0883 49.4845 30.0025 49.4845C32.2699 49.4845 34.4459 49.0897 36.4722 48.3765C36.42 48.2929 36.3726 48.2097 36.3349 48.1102L30.3451 31.7054Z" fill="#5B8266"/>
        <path d="M20.1728 19.0738C21.2195 19.0138 21.3427 20.5535 20.2912 20.681C20.2912 20.681 19.2401 20.8023 18.0605 20.8671L25.158 41.9686L29.4222 29.1823L26.3854 20.8671C25.3363 20.8023 24.3418 20.6815 24.3418 20.6815C23.2931 20.6172 23.4164 19.0138 24.4684 19.0738C24.4684 19.0738 27.6839 19.3231 29.5985 19.3231C31.6345 19.3231 34.793 19.0738 34.793 19.0738C35.8421 19.0143 35.9653 20.5535 34.9143 20.6815C34.9143 20.6815 33.8637 20.8023 32.685 20.8671L39.7289 41.8067L41.6715 35.3142C42.6583 32.7835 43.1536 30.6847 43.1536 29.018C43.1536 26.609 42.2876 24.9389 41.5483 23.6424C40.561 22.037 39.6356 20.6815 39.6356 19.0738C39.6356 17.2824 40.9911 15.6176 42.9081 15.6176C42.9913 15.6176 43.0749 15.6272 43.158 15.6345C39.6926 12.4571 35.0766 10.5154 30.0025 10.5154C23.1936 10.5154 17.2042 14.0098 13.7224 19.2975C14.1791 19.3134 14.6097 19.3231 14.9755 19.3231C17.0143 19.3231 20.1728 19.0738 20.1728 19.0738Z" fill="#5B8266"/>
        <path d="M39.7998 46.8402C45.5891 43.4628 49.4846 37.1878 49.4846 30.0005C49.4846 26.611 48.6215 23.4283 47.0993 20.6506C47.1829 21.276 47.2326 21.9395 47.2326 22.6576C47.2326 24.6326 46.8605 26.8536 45.7481 29.6337L39.7998 46.8402Z" fill="#5B8266"/>
        <path d="M0 0V60H60V0H0ZM56.2887 56.2887H3.71134V3.71134H56.2887V56.2887Z" fill="#5B8266"/>
    </g>
    <defs>
        <clipPath id="clip0_187_689">
            <rect width="60" height="60" fill="white"/>
        </clipPath>
    </defs>
</svg>
