<svg width="60" height="60" viewBox="0 0 60 60" fill="none"
    xmlns="http://www.w3.org/2000/svg">
    <path fill-rule="evenodd" clip-rule="evenodd" d="M20.625 52.5C20.625 49.9106 18.5269 47.8125 15.9375 47.8125H10.3125C7.72312 47.8125 5.625 49.9106 5.625 52.5V55.3125C5.625 55.83 6.045 56.25 6.5625 56.25H19.6875C20.205 56.25 20.625 55.83 20.625 55.3125V52.5ZM54.375 52.5C54.375 49.9106 52.2769 47.8125 49.6875 47.8125H44.0625C41.4731 47.8125 39.375 49.9106 39.375 52.5V55.3125C39.375 55.83 39.795 56.25 40.3125 56.25H53.4375C53.955 56.25 54.375 55.83 54.375 55.3125V52.5ZM37.5 52.5C37.5 49.9106 35.4019 47.8125 32.8125 47.8125H27.1875C24.5981 47.8125 22.5 49.9106 22.5 52.5V55.3125C22.5 55.83 22.92 56.25 23.4375 56.25H36.5625C37.08 56.25 37.5 55.83 37.5 55.3125V52.5ZM18.75 52.5V54.375H7.5V52.5C7.5 50.9475 8.76 49.6875 10.3125 49.6875H15.9375C17.49 49.6875 18.75 50.9475 18.75 52.5ZM52.5 52.5V54.375H41.25V52.5C41.25 50.9475 42.51 49.6875 44.0625 49.6875H49.6875C51.24 49.6875 52.5 50.9475 52.5 52.5ZM35.625 52.5V54.375H24.375V52.5C24.375 50.9475 25.635 49.6875 27.1875 49.6875H32.8125C34.365 49.6875 35.625 50.9475 35.625 52.5ZM17.8125 42.2775C18.0938 40.8731 17.73 39.4181 16.8225 38.3119C15.915 37.2037 14.5594 36.5625 13.1287 36.5625C13.1269 36.5625 13.1231 36.5625 13.1213 36.5625C11.6906 36.5625 10.335 37.2037 9.4275 38.3119C8.52 39.4181 8.15625 40.8731 8.4375 42.2775C8.61 43.1475 8.78625 44.0213 8.93812 44.7806C9.29062 46.5431 10.8375 47.8125 12.6375 47.8125H13.6125C15.4125 47.8125 16.9594 46.5431 17.3119 44.7806C17.4638 44.0213 17.64 43.1475 17.8125 42.2775ZM51.5625 42.2775C51.8438 40.8731 51.48 39.4181 50.5725 38.3119C49.665 37.2037 48.3094 36.5625 46.8787 36.5625C46.8769 36.5625 46.8731 36.5625 46.8713 36.5625C45.4406 36.5625 44.085 37.2037 43.1775 38.3119C42.27 39.4181 41.9062 40.8731 42.1875 42.2775C42.36 43.1475 42.5362 44.0213 42.6881 44.7806C43.0406 46.5431 44.5875 47.8125 46.3875 47.8125H47.3625C49.1625 47.8125 50.7094 46.5431 51.0619 44.7806C51.2138 44.0213 51.39 43.1475 51.5625 42.2775ZM34.6875 42.2775C34.9688 40.8731 34.605 39.4181 33.6975 38.3119C32.79 37.2037 31.4344 36.5625 30.0037 36.5625C30.0019 36.5625 29.9981 36.5625 29.9963 36.5625C28.5656 36.5625 27.21 37.2037 26.3025 38.3119C25.395 39.4181 25.0312 40.8731 25.3125 42.2775C25.485 43.1475 25.6612 44.0213 25.8131 44.7806C26.1656 46.5431 27.7125 47.8125 29.5125 47.8125H30.4875C32.2875 47.8125 33.8344 46.5431 34.1869 44.7806C34.3388 44.0213 34.515 43.1475 34.6875 42.2775ZM49.725 41.91L49.2244 44.4112C49.0463 45.2981 48.2681 45.9375 47.3644 45.9375C47.3625 45.9375 46.3875 45.9375 46.3875 45.9375C45.4819 45.9375 44.7037 45.2981 44.5256 44.4112L44.025 41.91C43.8544 41.0569 44.0756 40.1719 44.6269 39.5006C45.1781 38.8275 46.0013 38.4375 46.8713 38.4375H46.8787C47.7487 38.4375 48.5719 38.8275 49.1231 39.5006C49.6744 40.1719 49.8956 41.0569 49.725 41.91ZM15.975 41.91L15.4744 44.4112C15.2963 45.2981 14.5181 45.9375 13.6144 45.9375C13.6125 45.9375 12.6375 45.9375 12.6375 45.9375C11.7319 45.9375 10.9537 45.2981 10.7756 44.4112L10.275 41.91C10.1044 41.0569 10.3256 40.1719 10.8769 39.5006C11.4281 38.8275 12.2513 38.4375 13.1213 38.4375H13.1287C13.9987 38.4375 14.8219 38.8275 15.3731 39.5006C15.9244 40.1719 16.1456 41.0569 15.975 41.91ZM32.85 41.91L32.3494 44.4112C32.1713 45.2981 31.3931 45.9375 30.4894 45.9375C30.4875 45.9375 29.5125 45.9375 29.5125 45.9375C28.6069 45.9375 27.8287 45.2981 27.6506 44.4112L27.15 41.91C26.9794 41.0569 27.2006 40.1719 27.7519 39.5006C28.3031 38.8275 29.1263 38.4375 29.9963 38.4375H30.0037C30.8737 38.4375 31.6969 38.8275 32.2481 39.5006C32.7994 40.1719 33.0206 41.0569 32.85 41.91ZM25.3013 27.6544V30.9131C25.3013 31.5862 25.5994 32.22 26.1487 32.7244C26.8069 33.33 27.8606 33.75 29.0588 33.75H30.9412C32.1394 33.75 33.1931 33.33 33.8513 32.7244C34.4006 32.22 34.6987 31.5862 34.6987 30.9131V27.6544C36.465 26.235 37.6013 24.0356 37.6013 21.5625C37.6013 17.2781 34.1887 13.8094 30 13.8094C25.8113 13.8094 22.3987 17.2781 22.3987 21.5625C22.3987 24.0356 23.535 26.235 25.3013 27.6544ZM12.0881 26.7675C12.0881 26.7675 11.8313 26.25 11.2388 26.25H10.3125C9.56625 26.25 8.85187 25.9537 8.32312 25.4269C7.79624 24.8981 7.5 24.1838 7.5 23.4375V8.4375C7.5 6.885 8.76 5.625 10.3125 5.625H49.6875C51.24 5.625 52.5 6.885 52.5 8.4375V23.4375C52.5 24.1838 52.2038 24.8981 51.6769 25.4269C51.1481 25.9537 50.4338 26.25 49.6875 26.25H48.7612C48.2437 26.25 47.8275 26.9381 47.9119 26.7675L45.8213 30.9487L42.9675 26.6681C42.7931 26.4075 42.5006 26.25 42.1875 26.25H39.375C38.8575 26.25 38.4375 26.67 38.4375 27.1875C38.4375 27.705 38.8575 28.125 39.375 28.125H41.685L45.1575 33.3319C45.3431 33.6112 45.6619 33.7688 45.9956 33.7481C46.3294 33.7275 46.6275 33.5306 46.7756 33.2325L49.3294 28.125H49.6875C50.9306 28.125 52.1231 27.6319 53.0025 26.7525C53.8819 25.8731 54.375 24.6806 54.375 23.4375V8.4375C54.375 5.84812 52.2769 3.75 49.6875 3.75C40.9069 3.75 19.0931 3.75 10.3125 3.75C7.72312 3.75 5.625 5.84812 5.625 8.4375V23.4375C5.625 24.6806 6.11811 25.8731 6.99749 26.7525C7.87686 27.6319 9.06938 28.125 10.3125 28.125H10.6706L13.2244 33.2325C13.3725 33.5306 13.6706 33.7275 14.0044 33.7481C14.3381 33.7688 14.6569 33.6112 14.8425 33.3319L18.315 28.125H20.625C21.1425 28.125 21.5625 27.705 21.5625 27.1875C21.5625 26.67 21.1425 26.25 20.625 26.25H17.8125C17.4994 26.25 17.2069 26.4075 17.0325 26.6681L14.1787 30.9487L12.0881 26.7675ZM32.8237 28.7606C31.95 29.1187 30.9975 29.3156 30 29.3156C29.0025 29.3156 28.05 29.1187 27.1763 28.7606V30.9131C27.1763 31.1456 27.3619 31.3256 27.5888 31.4775C27.9638 31.7306 28.4869 31.875 29.0588 31.875H30.9412C31.5131 31.875 32.0362 31.7306 32.4112 31.4775C32.6381 31.3256 32.8237 31.1456 32.8237 30.9131V28.7606ZM30 15.6844C33.1669 15.6844 35.7263 18.3244 35.7263 21.5625C35.7263 24.8006 33.1669 27.4406 30 27.4406C26.8331 27.4406 24.2737 24.8006 24.2737 21.5625C24.2737 18.3244 26.8331 15.6844 30 15.6844ZM38.9644 17.3475L41.8031 15.7856C42.2569 15.5362 42.4219 14.9662 42.1725 14.5125C41.9231 14.0587 41.3531 13.8937 40.8994 14.1431L38.0625 15.7031C37.6088 15.9525 37.4419 16.5244 37.6913 16.9763C37.9406 17.43 38.5125 17.5969 38.9644 17.3475ZM21.9375 15.7031L19.1006 14.1431C18.6469 13.8937 18.0769 14.0587 17.8275 14.5125C17.5781 14.9662 17.7431 15.5362 18.1969 15.7856L21.0356 17.3475C21.4875 17.5969 22.0594 17.43 22.3087 16.9763C22.5581 16.5244 22.3912 15.9525 21.9375 15.7031ZM25.8412 12.2906L24.1312 9.38062C23.8687 8.93437 23.2931 8.78624 22.8469 9.04874C22.4006 9.31124 22.2525 9.885 22.515 10.3313L24.225 13.2412C24.4875 13.6856 25.0631 13.8356 25.5094 13.5731C25.9556 13.3106 26.1037 12.735 25.8412 12.2906ZM35.775 13.2412L37.485 10.3313C37.7475 9.885 37.5994 9.31124 37.1531 9.04874C36.7069 8.78624 36.1313 8.93437 35.8688 9.38062L34.1588 12.2906C33.8963 12.735 34.0444 13.3106 34.4906 13.5731C34.9369 13.8356 35.5125 13.6856 35.775 13.2412ZM30.9375 11.2762V8.4375C30.9375 7.92 30.5175 7.5 30 7.5C29.4825 7.5 29.0625 7.92 29.0625 8.4375V11.2762C29.0625 11.7919 29.4825 12.2137 30 12.2137C30.5175 12.2137 30.9375 11.7919 30.9375 11.2762Z" fill="#5B8266"/>
</svg>
